<mxfile host="app.diagrams.net" modified="2024-05-06T22:40:39.147Z" agent="Mozilla/5.0 (Windows NT 10.0; Win64; x64) AppleWebKit/537.36 (KHTML, like Gecko) Chrome/124.0.0.0 Safari/537.36 Edg/124.0.0.0" etag="mjuSkcQvsVdYyf-jGqCS" version="24.3.1" type="device">
  <diagram id="R2lEEEUBdFMjLlhIrx00" name="Page-1">
    <mxGraphModel dx="983" dy="590" grid="1" gridSize="10" guides="1" tooltips="1" connect="1" arrows="1" fold="1" page="1" pageScale="1" pageWidth="850" pageHeight="1100" math="0" shadow="0" extFonts="Permanent Marker^https://fonts.googleapis.com/css?family=Permanent+Marker">
      <root>
        <mxCell id="0" />
        <mxCell id="1" parent="0" />
        <mxCell id="KB0jX_A3wL89m-BL7uf9-19" value="JOB2552" style="whiteSpace=wrap;html=1;align=center;" parent="1" vertex="1">
          <mxGeometry x="58.120000000000005" y="105" width="170" height="60" as="geometry" />
        </mxCell>
        <mxCell id="KB0jX_A3wL89m-BL7uf9-20" value="Duration" style="text;strokeColor=none;fillColor=none;spacingLeft=4;spacingRight=4;overflow=hidden;rotatable=0;points=[[0,0.5],[1,0.5]];portConstraint=eastwest;fontSize=12;whiteSpace=wrap;html=1;" parent="1" vertex="1">
          <mxGeometry x="178.12" y="40" width="60" height="30" as="geometry" />
        </mxCell>
        <mxCell id="KB0jX_A3wL89m-BL7uf9-21" value="" style="shape=waypoint;sketch=0;fillStyle=solid;size=6;pointerEvents=1;points=[];fillColor=none;resizable=0;rotatable=0;perimeter=centerPerimeter;snapToPoint=1;" parent="1" vertex="1">
          <mxGeometry x="58.120000000000005" y="55" width="20" height="20" as="geometry" />
        </mxCell>
        <mxCell id="KB0jX_A3wL89m-BL7uf9-22" value="" style="line;strokeWidth=2;direction=south;html=1;" parent="1" vertex="1">
          <mxGeometry x="63.120000000000005" y="65" width="10" height="40" as="geometry" />
        </mxCell>
        <mxCell id="KB0jX_A3wL89m-BL7uf9-23" style="edgeStyle=orthogonalEdgeStyle;rounded=0;orthogonalLoop=1;jettySize=auto;html=1;exitX=0;exitY=0.5;exitDx=0;exitDy=0;exitPerimeter=0;entryX=0.308;entryY=0.508;entryDx=0;entryDy=0;entryPerimeter=0;" parent="1" source="KB0jX_A3wL89m-BL7uf9-22" target="KB0jX_A3wL89m-BL7uf9-21" edge="1">
          <mxGeometry relative="1" as="geometry" />
        </mxCell>
        <mxCell id="KB0jX_A3wL89m-BL7uf9-26" style="edgeStyle=orthogonalEdgeStyle;rounded=0;orthogonalLoop=1;jettySize=auto;html=1;exitX=0;exitY=0.5;exitDx=0;exitDy=0;exitPerimeter=0;entryX=0.308;entryY=0.508;entryDx=0;entryDy=0;entryPerimeter=0;" parent="1" edge="1">
          <mxGeometry relative="1" as="geometry">
            <mxPoint x="152.7" y="55" as="sourcePoint" />
            <mxPoint x="152.7" y="55" as="targetPoint" />
          </mxGeometry>
        </mxCell>
        <mxCell id="KB0jX_A3wL89m-BL7uf9-28" value="" style="shape=waypoint;sketch=0;fillStyle=solid;size=6;pointerEvents=1;points=[];fillColor=none;resizable=0;rotatable=0;perimeter=centerPerimeter;snapToPoint=1;" parent="1" vertex="1">
          <mxGeometry x="132.7" y="55" width="20" height="20" as="geometry" />
        </mxCell>
        <mxCell id="KB0jX_A3wL89m-BL7uf9-29" value="" style="line;strokeWidth=2;direction=south;html=1;" parent="1" vertex="1">
          <mxGeometry x="137.7" y="65" width="10" height="40" as="geometry" />
        </mxCell>
        <mxCell id="KB0jX_A3wL89m-BL7uf9-30" style="edgeStyle=orthogonalEdgeStyle;rounded=0;orthogonalLoop=1;jettySize=auto;html=1;exitX=0;exitY=0.5;exitDx=0;exitDy=0;exitPerimeter=0;entryX=0.308;entryY=0.508;entryDx=0;entryDy=0;entryPerimeter=0;" parent="1" source="KB0jX_A3wL89m-BL7uf9-29" target="KB0jX_A3wL89m-BL7uf9-28" edge="1">
          <mxGeometry relative="1" as="geometry" />
        </mxCell>
        <mxCell id="KB0jX_A3wL89m-BL7uf9-31" value="" style="shape=waypoint;sketch=0;fillStyle=solid;size=6;pointerEvents=1;points=[];fillColor=none;resizable=0;rotatable=0;perimeter=centerPerimeter;snapToPoint=1;" parent="1" vertex="1">
          <mxGeometry x="198.12" y="55" width="20" height="20" as="geometry" />
        </mxCell>
        <mxCell id="KB0jX_A3wL89m-BL7uf9-32" value="" style="line;strokeWidth=2;direction=south;html=1;" parent="1" vertex="1">
          <mxGeometry x="203.12" y="65" width="10" height="40" as="geometry" />
        </mxCell>
        <mxCell id="KB0jX_A3wL89m-BL7uf9-33" style="edgeStyle=orthogonalEdgeStyle;rounded=0;orthogonalLoop=1;jettySize=auto;html=1;exitX=0;exitY=0.5;exitDx=0;exitDy=0;exitPerimeter=0;entryX=0.308;entryY=0.508;entryDx=0;entryDy=0;entryPerimeter=0;" parent="1" source="KB0jX_A3wL89m-BL7uf9-32" target="KB0jX_A3wL89m-BL7uf9-31" edge="1">
          <mxGeometry relative="1" as="geometry" />
        </mxCell>
        <mxCell id="KB0jX_A3wL89m-BL7uf9-35" value="Name" style="text;strokeColor=none;fillColor=none;spacingLeft=4;spacingRight=4;overflow=hidden;rotatable=0;points=[[0,0.5],[1,0.5]];portConstraint=eastwest;fontSize=12;whiteSpace=wrap;html=1;" parent="1" vertex="1">
          <mxGeometry x="468.12" y="40" width="50" height="30" as="geometry" />
        </mxCell>
        <mxCell id="KB0jX_A3wL89m-BL7uf9-36" value="&lt;u&gt;JobID&lt;/u&gt;" style="text;strokeColor=none;fillColor=none;spacingLeft=4;spacingRight=4;overflow=hidden;rotatable=0;points=[[0,0.5],[1,0.5]];portConstraint=eastwest;fontSize=12;whiteSpace=wrap;html=1;" parent="1" vertex="1">
          <mxGeometry x="48.120000000000005" y="40" width="40" height="30" as="geometry" />
        </mxCell>
        <mxCell id="KB0jX_A3wL89m-BL7uf9-37" value="Title" style="text;strokeColor=none;fillColor=none;spacingLeft=4;spacingRight=4;overflow=hidden;rotatable=0;points=[[0,0.5],[1,0.5]];portConstraint=eastwest;fontSize=12;whiteSpace=wrap;html=1;" parent="1" vertex="1">
          <mxGeometry x="123.12" y="40" width="40" height="30" as="geometry" />
        </mxCell>
        <mxCell id="KB0jX_A3wL89m-BL7uf9-38" value="Description" style="text;strokeColor=none;fillColor=none;spacingLeft=4;spacingRight=4;overflow=hidden;rotatable=0;points=[[0,0.5],[1,0.5]];portConstraint=eastwest;fontSize=12;whiteSpace=wrap;html=1;" parent="1" vertex="1">
          <mxGeometry x="30.620000000000005" y="205" width="75" height="30" as="geometry" />
        </mxCell>
        <mxCell id="KB0jX_A3wL89m-BL7uf9-39" value="Date" style="text;strokeColor=none;fillColor=none;spacingLeft=4;spacingRight=4;overflow=hidden;rotatable=0;points=[[0,0.5],[1,0.5]];portConstraint=eastwest;fontSize=12;whiteSpace=wrap;html=1;" parent="1" vertex="1">
          <mxGeometry x="122.70000000000005" y="205" width="40" height="30" as="geometry" />
        </mxCell>
        <mxCell id="KB0jX_A3wL89m-BL7uf9-50" value="" style="line;strokeWidth=2;direction=south;html=1;" parent="1" vertex="1">
          <mxGeometry x="63.120000000000005" y="165" width="10" height="40" as="geometry" />
        </mxCell>
        <mxCell id="KB0jX_A3wL89m-BL7uf9-51" value="" style="shape=waypoint;sketch=0;fillStyle=solid;size=6;pointerEvents=1;points=[];fillColor=none;resizable=0;rotatable=0;perimeter=centerPerimeter;snapToPoint=1;" parent="1" vertex="1">
          <mxGeometry x="58.120000000000005" y="195" width="20" height="20" as="geometry" />
        </mxCell>
        <mxCell id="KB0jX_A3wL89m-BL7uf9-56" value="" style="line;strokeWidth=2;direction=south;html=1;" parent="1" vertex="1">
          <mxGeometry x="203.12" y="165" width="10" height="40" as="geometry" />
        </mxCell>
        <mxCell id="KB0jX_A3wL89m-BL7uf9-57" value="" style="shape=waypoint;sketch=0;fillStyle=solid;size=6;pointerEvents=1;points=[];fillColor=none;resizable=0;rotatable=0;perimeter=centerPerimeter;snapToPoint=1;" parent="1" vertex="1">
          <mxGeometry x="198.12" y="195" width="20" height="20" as="geometry" />
        </mxCell>
        <mxCell id="KB0jX_A3wL89m-BL7uf9-58" value="" style="line;strokeWidth=2;direction=south;html=1;" parent="1" vertex="1">
          <mxGeometry x="137.7" y="165" width="10" height="40" as="geometry" />
        </mxCell>
        <mxCell id="KB0jX_A3wL89m-BL7uf9-59" value="" style="shape=waypoint;sketch=0;fillStyle=solid;size=6;pointerEvents=1;points=[];fillColor=none;resizable=0;rotatable=0;perimeter=centerPerimeter;snapToPoint=1;" parent="1" vertex="1">
          <mxGeometry x="132.7" y="195" width="20" height="20" as="geometry" />
        </mxCell>
        <mxCell id="KB0jX_A3wL89m-BL7uf9-62" value="DRIVER2552" style="whiteSpace=wrap;html=1;align=center;" parent="1" vertex="1">
          <mxGeometry x="408.12" y="105" width="170" height="60" as="geometry" />
        </mxCell>
        <mxCell id="KB0jX_A3wL89m-BL7uf9-63" value="" style="shape=waypoint;sketch=0;fillStyle=solid;size=6;pointerEvents=1;points=[];fillColor=none;resizable=0;rotatable=0;perimeter=centerPerimeter;snapToPoint=1;" parent="1" vertex="1">
          <mxGeometry x="408.12" y="55" width="20" height="20" as="geometry" />
        </mxCell>
        <mxCell id="KB0jX_A3wL89m-BL7uf9-64" value="" style="line;strokeWidth=2;direction=south;html=1;" parent="1" vertex="1">
          <mxGeometry x="413.12" y="65" width="10" height="40" as="geometry" />
        </mxCell>
        <mxCell id="KB0jX_A3wL89m-BL7uf9-65" style="edgeStyle=orthogonalEdgeStyle;rounded=0;orthogonalLoop=1;jettySize=auto;html=1;exitX=0;exitY=0.5;exitDx=0;exitDy=0;exitPerimeter=0;entryX=0.308;entryY=0.508;entryDx=0;entryDy=0;entryPerimeter=0;" parent="1" source="KB0jX_A3wL89m-BL7uf9-64" target="KB0jX_A3wL89m-BL7uf9-63" edge="1">
          <mxGeometry relative="1" as="geometry" />
        </mxCell>
        <mxCell id="KB0jX_A3wL89m-BL7uf9-66" style="edgeStyle=orthogonalEdgeStyle;rounded=0;orthogonalLoop=1;jettySize=auto;html=1;exitX=0;exitY=0.5;exitDx=0;exitDy=0;exitPerimeter=0;entryX=0.308;entryY=0.508;entryDx=0;entryDy=0;entryPerimeter=0;" parent="1" edge="1">
          <mxGeometry relative="1" as="geometry">
            <mxPoint x="502.69999999999993" y="55" as="sourcePoint" />
            <mxPoint x="502.69999999999993" y="55" as="targetPoint" />
          </mxGeometry>
        </mxCell>
        <mxCell id="KB0jX_A3wL89m-BL7uf9-67" value="" style="shape=waypoint;sketch=0;fillStyle=solid;size=6;pointerEvents=1;points=[];fillColor=none;resizable=0;rotatable=0;perimeter=centerPerimeter;snapToPoint=1;" parent="1" vertex="1">
          <mxGeometry x="482.69999999999993" y="55" width="20" height="20" as="geometry" />
        </mxCell>
        <mxCell id="KB0jX_A3wL89m-BL7uf9-68" value="" style="line;strokeWidth=2;direction=south;html=1;" parent="1" vertex="1">
          <mxGeometry x="487.69999999999993" y="65" width="10" height="40" as="geometry" />
        </mxCell>
        <mxCell id="KB0jX_A3wL89m-BL7uf9-69" style="edgeStyle=orthogonalEdgeStyle;rounded=0;orthogonalLoop=1;jettySize=auto;html=1;exitX=0;exitY=0.5;exitDx=0;exitDy=0;exitPerimeter=0;entryX=0.308;entryY=0.508;entryDx=0;entryDy=0;entryPerimeter=0;" parent="1" source="KB0jX_A3wL89m-BL7uf9-68" target="KB0jX_A3wL89m-BL7uf9-67" edge="1">
          <mxGeometry relative="1" as="geometry" />
        </mxCell>
        <mxCell id="KB0jX_A3wL89m-BL7uf9-70" value="" style="shape=waypoint;sketch=0;fillStyle=solid;size=6;pointerEvents=1;points=[];fillColor=none;resizable=0;rotatable=0;perimeter=centerPerimeter;snapToPoint=1;" parent="1" vertex="1">
          <mxGeometry x="548.12" y="55" width="20" height="20" as="geometry" />
        </mxCell>
        <mxCell id="KB0jX_A3wL89m-BL7uf9-71" value="" style="line;strokeWidth=2;direction=south;html=1;" parent="1" vertex="1">
          <mxGeometry x="553.12" y="65" width="10" height="40" as="geometry" />
        </mxCell>
        <mxCell id="KB0jX_A3wL89m-BL7uf9-72" style="edgeStyle=orthogonalEdgeStyle;rounded=0;orthogonalLoop=1;jettySize=auto;html=1;exitX=0;exitY=0.5;exitDx=0;exitDy=0;exitPerimeter=0;entryX=0.308;entryY=0.508;entryDx=0;entryDy=0;entryPerimeter=0;" parent="1" source="KB0jX_A3wL89m-BL7uf9-71" target="KB0jX_A3wL89m-BL7uf9-70" edge="1">
          <mxGeometry relative="1" as="geometry" />
        </mxCell>
        <mxCell id="KB0jX_A3wL89m-BL7uf9-73" value="" style="line;strokeWidth=2;direction=south;html=1;" parent="1" vertex="1">
          <mxGeometry x="413.12" y="165" width="10" height="40" as="geometry" />
        </mxCell>
        <mxCell id="KB0jX_A3wL89m-BL7uf9-74" value="" style="shape=waypoint;sketch=0;fillStyle=solid;size=6;pointerEvents=1;points=[];fillColor=none;resizable=0;rotatable=0;perimeter=centerPerimeter;snapToPoint=1;" parent="1" vertex="1">
          <mxGeometry x="408.12" y="195" width="20" height="20" as="geometry" />
        </mxCell>
        <mxCell id="KB0jX_A3wL89m-BL7uf9-75" value="" style="line;strokeWidth=2;direction=south;html=1;" parent="1" vertex="1">
          <mxGeometry x="710.4200000000001" y="15" width="10" height="40" as="geometry" />
        </mxCell>
        <mxCell id="KB0jX_A3wL89m-BL7uf9-76" value="" style="shape=waypoint;sketch=0;fillStyle=solid;size=6;pointerEvents=1;points=[];fillColor=none;resizable=0;rotatable=0;perimeter=centerPerimeter;snapToPoint=1;" parent="1" vertex="1">
          <mxGeometry x="705.4200000000001" y="45" width="20" height="20" as="geometry" />
        </mxCell>
        <mxCell id="KB0jX_A3wL89m-BL7uf9-77" value="" style="line;strokeWidth=2;direction=south;html=1;" parent="1" vertex="1">
          <mxGeometry x="645" y="15" width="10" height="40" as="geometry" />
        </mxCell>
        <mxCell id="KB0jX_A3wL89m-BL7uf9-78" value="" style="shape=waypoint;sketch=0;fillStyle=solid;size=6;pointerEvents=1;points=[];fillColor=none;resizable=0;rotatable=0;perimeter=centerPerimeter;snapToPoint=1;" parent="1" vertex="1">
          <mxGeometry x="640" y="45" width="20" height="20" as="geometry" />
        </mxCell>
        <mxCell id="KB0jX_A3wL89m-BL7uf9-79" value="Address" style="text;strokeColor=none;fillColor=none;spacingLeft=4;spacingRight=4;overflow=hidden;rotatable=0;points=[[0,0.5],[1,0.5]];portConstraint=eastwest;fontSize=12;whiteSpace=wrap;html=1;" parent="1" vertex="1">
          <mxGeometry x="528.12" y="40" width="60.42" height="30" as="geometry" />
        </mxCell>
        <mxCell id="KB0jX_A3wL89m-BL7uf9-80" value="&lt;u&gt;DriverID&lt;/u&gt;" style="text;strokeColor=none;fillColor=none;spacingLeft=4;spacingRight=4;overflow=hidden;rotatable=0;points=[[0,0.5],[1,0.5]];portConstraint=eastwest;fontSize=12;whiteSpace=wrap;html=1;" parent="1" vertex="1">
          <mxGeometry x="388.12" y="40" width="60" height="30" as="geometry" />
        </mxCell>
        <mxCell id="KB0jX_A3wL89m-BL7uf9-81" value="Fixed Fee" style="text;strokeColor=none;fillColor=none;spacingLeft=4;spacingRight=4;overflow=hidden;rotatable=0;points=[[0,0.5],[1,0.5]];portConstraint=eastwest;fontSize=12;whiteSpace=wrap;html=1;" parent="1" vertex="1">
          <mxGeometry x="173.12" y="205" width="70" height="30" as="geometry" />
        </mxCell>
        <mxCell id="KB0jX_A3wL89m-BL7uf9-82" value="PhoneNumber" style="text;strokeColor=none;fillColor=none;spacingLeft=4;spacingRight=4;overflow=hidden;rotatable=0;points=[[0,0.5],[1,0.5]];portConstraint=eastwest;fontSize=12;whiteSpace=wrap;html=1;" parent="1" vertex="1">
          <mxGeometry x="373.12" y="205" width="90" height="30" as="geometry" />
        </mxCell>
        <mxCell id="KB0jX_A3wL89m-BL7uf9-84" value="" style="edgeStyle=entityRelationEdgeStyle;fontSize=12;html=1;endArrow=ERzeroToMany;startArrow=ERmandOne;rounded=0;" parent="1" source="KB0jX_A3wL89m-BL7uf9-62" target="KB0jX_A3wL89m-BL7uf9-19" edge="1">
          <mxGeometry width="100" height="100" relative="1" as="geometry">
            <mxPoint x="613.12" y="260" as="sourcePoint" />
            <mxPoint x="278.12" y="135" as="targetPoint" />
          </mxGeometry>
        </mxCell>
        <mxCell id="KB0jX_A3wL89m-BL7uf9-85" value="do" style="text;strokeColor=none;fillColor=none;spacingLeft=4;spacingRight=4;overflow=hidden;rotatable=0;points=[[0,0.5],[1,0.5]];portConstraint=eastwest;fontSize=12;whiteSpace=wrap;html=1;" parent="1" vertex="1">
          <mxGeometry x="304.58" y="110" width="25.42" height="30" as="geometry" />
        </mxCell>
        <mxCell id="KB0jX_A3wL89m-BL7uf9-88" value="SHOW2552" style="whiteSpace=wrap;html=1;align=center;" parent="1" vertex="1">
          <mxGeometry x="180.95" y="432.5" width="170" height="60" as="geometry" />
        </mxCell>
        <mxCell id="KB0jX_A3wL89m-BL7uf9-89" value="Description" style="text;strokeColor=none;fillColor=none;spacingLeft=4;spacingRight=4;overflow=hidden;rotatable=0;points=[[0,0.5],[1,0.5]];portConstraint=eastwest;fontSize=12;whiteSpace=wrap;html=1;" parent="1" vertex="1">
          <mxGeometry x="294.8" y="367.5" width="72.3" height="30" as="geometry" />
        </mxCell>
        <mxCell id="KB0jX_A3wL89m-BL7uf9-90" value="" style="shape=waypoint;sketch=0;fillStyle=solid;size=6;pointerEvents=1;points=[];fillColor=none;resizable=0;rotatable=0;perimeter=centerPerimeter;snapToPoint=1;" parent="1" vertex="1">
          <mxGeometry x="180.95" y="382.5" width="20" height="20" as="geometry" />
        </mxCell>
        <mxCell id="KB0jX_A3wL89m-BL7uf9-91" value="" style="line;strokeWidth=2;direction=south;html=1;" parent="1" vertex="1">
          <mxGeometry x="185.95" y="392.5" width="10" height="40" as="geometry" />
        </mxCell>
        <mxCell id="KB0jX_A3wL89m-BL7uf9-92" style="edgeStyle=orthogonalEdgeStyle;rounded=0;orthogonalLoop=1;jettySize=auto;html=1;exitX=0;exitY=0.5;exitDx=0;exitDy=0;exitPerimeter=0;entryX=0.308;entryY=0.508;entryDx=0;entryDy=0;entryPerimeter=0;" parent="1" source="KB0jX_A3wL89m-BL7uf9-91" target="KB0jX_A3wL89m-BL7uf9-90" edge="1">
          <mxGeometry relative="1" as="geometry" />
        </mxCell>
        <mxCell id="KB0jX_A3wL89m-BL7uf9-93" style="edgeStyle=orthogonalEdgeStyle;rounded=0;orthogonalLoop=1;jettySize=auto;html=1;exitX=0;exitY=0.5;exitDx=0;exitDy=0;exitPerimeter=0;entryX=0.308;entryY=0.508;entryDx=0;entryDy=0;entryPerimeter=0;" parent="1" edge="1">
          <mxGeometry relative="1" as="geometry">
            <mxPoint x="275.53" y="382.5" as="sourcePoint" />
            <mxPoint x="275.53" y="382.5" as="targetPoint" />
          </mxGeometry>
        </mxCell>
        <mxCell id="KB0jX_A3wL89m-BL7uf9-94" value="" style="shape=waypoint;sketch=0;fillStyle=solid;size=6;pointerEvents=1;points=[];fillColor=none;resizable=0;rotatable=0;perimeter=centerPerimeter;snapToPoint=1;" parent="1" vertex="1">
          <mxGeometry x="255.52999999999997" y="382.5" width="20" height="20" as="geometry" />
        </mxCell>
        <mxCell id="KB0jX_A3wL89m-BL7uf9-95" value="" style="line;strokeWidth=2;direction=south;html=1;" parent="1" vertex="1">
          <mxGeometry x="260.53" y="392.5" width="10" height="40" as="geometry" />
        </mxCell>
        <mxCell id="KB0jX_A3wL89m-BL7uf9-96" style="edgeStyle=orthogonalEdgeStyle;rounded=0;orthogonalLoop=1;jettySize=auto;html=1;exitX=0;exitY=0.5;exitDx=0;exitDy=0;exitPerimeter=0;entryX=0.308;entryY=0.508;entryDx=0;entryDy=0;entryPerimeter=0;" parent="1" source="KB0jX_A3wL89m-BL7uf9-95" target="KB0jX_A3wL89m-BL7uf9-94" edge="1">
          <mxGeometry relative="1" as="geometry" />
        </mxCell>
        <mxCell id="KB0jX_A3wL89m-BL7uf9-97" value="" style="shape=waypoint;sketch=0;fillStyle=solid;size=6;pointerEvents=1;points=[];fillColor=none;resizable=0;rotatable=0;perimeter=centerPerimeter;snapToPoint=1;" parent="1" vertex="1">
          <mxGeometry x="320.95" y="382.5" width="20" height="20" as="geometry" />
        </mxCell>
        <mxCell id="KB0jX_A3wL89m-BL7uf9-98" value="" style="line;strokeWidth=2;direction=south;html=1;" parent="1" vertex="1">
          <mxGeometry x="325.95" y="392.5" width="10" height="40" as="geometry" />
        </mxCell>
        <mxCell id="KB0jX_A3wL89m-BL7uf9-99" style="edgeStyle=orthogonalEdgeStyle;rounded=0;orthogonalLoop=1;jettySize=auto;html=1;exitX=0;exitY=0.5;exitDx=0;exitDy=0;exitPerimeter=0;entryX=0.308;entryY=0.508;entryDx=0;entryDy=0;entryPerimeter=0;" parent="1" source="KB0jX_A3wL89m-BL7uf9-98" target="KB0jX_A3wL89m-BL7uf9-97" edge="1">
          <mxGeometry relative="1" as="geometry" />
        </mxCell>
        <mxCell id="KB0jX_A3wL89m-BL7uf9-100" value="Address" style="text;strokeColor=none;fillColor=none;spacingLeft=4;spacingRight=4;overflow=hidden;rotatable=0;points=[[0,0.5],[1,0.5]];portConstraint=eastwest;fontSize=12;whiteSpace=wrap;html=1;" parent="1" vertex="1">
          <mxGeometry x="147.5" y="565" width="57.3" height="30" as="geometry" />
        </mxCell>
        <mxCell id="KB0jX_A3wL89m-BL7uf9-101" value="&lt;u&gt;ShowID&lt;/u&gt;" style="text;strokeColor=none;fillColor=none;spacingLeft=4;spacingRight=4;overflow=hidden;rotatable=0;points=[[0,0.5],[1,0.5]];portConstraint=eastwest;fontSize=12;whiteSpace=wrap;html=1;" parent="1" vertex="1">
          <mxGeometry x="164.79999999999998" y="367.5" width="52.3" height="30" as="geometry" />
        </mxCell>
        <mxCell id="KB0jX_A3wL89m-BL7uf9-102" value="Title" style="text;strokeColor=none;fillColor=none;spacingLeft=4;spacingRight=4;overflow=hidden;rotatable=0;points=[[0,0.5],[1,0.5]];portConstraint=eastwest;fontSize=12;whiteSpace=wrap;html=1;" parent="1" vertex="1">
          <mxGeometry x="245.95" y="367.5" width="40" height="30" as="geometry" />
        </mxCell>
        <mxCell id="KB0jX_A3wL89m-BL7uf9-110" value="COMEDIAN2552" style="whiteSpace=wrap;html=1;align=center;" parent="1" vertex="1">
          <mxGeometry x="15.000000000000064" y="630" width="170" height="60" as="geometry" />
        </mxCell>
        <mxCell id="KB0jX_A3wL89m-BL7uf9-111" value="" style="shape=waypoint;sketch=0;fillStyle=solid;size=6;pointerEvents=1;points=[];fillColor=none;resizable=0;rotatable=0;perimeter=centerPerimeter;snapToPoint=1;" parent="1" vertex="1">
          <mxGeometry x="14.579999999999991" y="580" width="20" height="20" as="geometry" />
        </mxCell>
        <mxCell id="KB0jX_A3wL89m-BL7uf9-112" value="" style="line;strokeWidth=2;direction=south;html=1;" parent="1" vertex="1">
          <mxGeometry x="19.57999999999999" y="590" width="10" height="40" as="geometry" />
        </mxCell>
        <mxCell id="KB0jX_A3wL89m-BL7uf9-113" style="edgeStyle=orthogonalEdgeStyle;rounded=0;orthogonalLoop=1;jettySize=auto;html=1;exitX=0;exitY=0.5;exitDx=0;exitDy=0;exitPerimeter=0;entryX=0.308;entryY=0.508;entryDx=0;entryDy=0;entryPerimeter=0;" parent="1" source="KB0jX_A3wL89m-BL7uf9-112" target="KB0jX_A3wL89m-BL7uf9-111" edge="1">
          <mxGeometry relative="1" as="geometry" />
        </mxCell>
        <mxCell id="KB0jX_A3wL89m-BL7uf9-114" style="edgeStyle=orthogonalEdgeStyle;rounded=0;orthogonalLoop=1;jettySize=auto;html=1;exitX=0;exitY=0.5;exitDx=0;exitDy=0;exitPerimeter=0;entryX=0.308;entryY=0.508;entryDx=0;entryDy=0;entryPerimeter=0;" parent="1" edge="1">
          <mxGeometry relative="1" as="geometry">
            <mxPoint x="182.07999999999998" y="580" as="sourcePoint" />
            <mxPoint x="182.07999999999998" y="580" as="targetPoint" />
          </mxGeometry>
        </mxCell>
        <mxCell id="KB0jX_A3wL89m-BL7uf9-115" value="" style="shape=waypoint;sketch=0;fillStyle=solid;size=6;pointerEvents=1;points=[];fillColor=none;resizable=0;rotatable=0;perimeter=centerPerimeter;snapToPoint=1;" parent="1" vertex="1">
          <mxGeometry x="162.07999999999998" y="580" width="20" height="20" as="geometry" />
        </mxCell>
        <mxCell id="KB0jX_A3wL89m-BL7uf9-116" value="" style="line;strokeWidth=2;direction=south;html=1;" parent="1" vertex="1">
          <mxGeometry x="167.07999999999998" y="590" width="10" height="40" as="geometry" />
        </mxCell>
        <mxCell id="KB0jX_A3wL89m-BL7uf9-117" style="edgeStyle=orthogonalEdgeStyle;rounded=0;orthogonalLoop=1;jettySize=auto;html=1;exitX=0;exitY=0.5;exitDx=0;exitDy=0;exitPerimeter=0;entryX=0.308;entryY=0.508;entryDx=0;entryDy=0;entryPerimeter=0;" parent="1" source="KB0jX_A3wL89m-BL7uf9-116" target="KB0jX_A3wL89m-BL7uf9-115" edge="1">
          <mxGeometry relative="1" as="geometry" />
        </mxCell>
        <mxCell id="KB0jX_A3wL89m-BL7uf9-121" value="" style="line;strokeWidth=2;direction=south;html=1;" parent="1" vertex="1">
          <mxGeometry x="19.159999999999975" y="690" width="10" height="40" as="geometry" />
        </mxCell>
        <mxCell id="KB0jX_A3wL89m-BL7uf9-122" value="" style="shape=waypoint;sketch=0;fillStyle=solid;size=6;pointerEvents=1;points=[];fillColor=none;resizable=0;rotatable=0;perimeter=centerPerimeter;snapToPoint=1;" parent="1" vertex="1">
          <mxGeometry x="14.159999999999975" y="720" width="20" height="20" as="geometry" />
        </mxCell>
        <mxCell id="KB0jX_A3wL89m-BL7uf9-124" value="Name" style="text;strokeColor=none;fillColor=none;spacingLeft=4;spacingRight=4;overflow=hidden;rotatable=0;points=[[0,0.5],[1,0.5]];portConstraint=eastwest;fontSize=12;whiteSpace=wrap;html=1;" parent="1" vertex="1">
          <mxGeometry x="78.11999999999998" y="730" width="60" height="30" as="geometry" />
        </mxCell>
        <mxCell id="KB0jX_A3wL89m-BL7uf9-126" value="Email" style="text;strokeColor=none;fillColor=none;spacingLeft=4;spacingRight=4;overflow=hidden;rotatable=0;points=[[0,0.5],[1,0.5]];portConstraint=eastwest;fontSize=12;whiteSpace=wrap;html=1;" parent="1" vertex="1">
          <mxGeometry x="3.220000000000006" y="730" width="42.72" height="30" as="geometry" />
        </mxCell>
        <mxCell id="KB0jX_A3wL89m-BL7uf9-129" value="ATTENDEES2552" style="whiteSpace=wrap;html=1;align=center;" parent="1" vertex="1">
          <mxGeometry x="670.0000000000001" y="432.5" width="170" height="60" as="geometry" />
        </mxCell>
        <mxCell id="KB0jX_A3wL89m-BL7uf9-130" value="" style="line;strokeWidth=2;direction=south;html=1;" parent="1" vertex="1">
          <mxGeometry x="94.16" y="690" width="10" height="40" as="geometry" />
        </mxCell>
        <mxCell id="KB0jX_A3wL89m-BL7uf9-131" value="" style="shape=waypoint;sketch=0;fillStyle=solid;size=6;pointerEvents=1;points=[];fillColor=none;resizable=0;rotatable=0;perimeter=centerPerimeter;snapToPoint=1;" parent="1" vertex="1">
          <mxGeometry x="89.16" y="720" width="20" height="20" as="geometry" />
        </mxCell>
        <mxCell id="KB0jX_A3wL89m-BL7uf9-132" value="ContactNumber" style="text;strokeColor=none;fillColor=none;spacingLeft=4;spacingRight=4;overflow=hidden;rotatable=0;points=[[0,0.5],[1,0.5]];portConstraint=eastwest;fontSize=12;whiteSpace=wrap;html=1;fontStyle=4" parent="1" vertex="1">
          <mxGeometry x="3.2200000000000077" y="560" width="97.72" height="30" as="geometry" />
        </mxCell>
        <mxCell id="KB0jX_A3wL89m-BL7uf9-133" value="Address" style="text;strokeColor=none;fillColor=none;spacingLeft=4;spacingRight=4;overflow=hidden;rotatable=0;points=[[0,0.5],[1,0.5]];portConstraint=eastwest;fontSize=12;whiteSpace=wrap;html=1;" parent="1" vertex="1">
          <mxGeometry x="782.3899999999999" y="367.5" width="72.3" height="30" as="geometry" />
        </mxCell>
        <mxCell id="KB0jX_A3wL89m-BL7uf9-134" value="" style="shape=waypoint;sketch=0;fillStyle=solid;size=6;pointerEvents=1;points=[];fillColor=none;resizable=0;rotatable=0;perimeter=centerPerimeter;snapToPoint=1;" parent="1" vertex="1">
          <mxGeometry x="665" y="382.5" width="20" height="20" as="geometry" />
        </mxCell>
        <mxCell id="KB0jX_A3wL89m-BL7uf9-135" value="" style="line;strokeWidth=2;direction=south;html=1;" parent="1" vertex="1">
          <mxGeometry x="670" y="392.5" width="10" height="40" as="geometry" />
        </mxCell>
        <mxCell id="KB0jX_A3wL89m-BL7uf9-136" style="edgeStyle=orthogonalEdgeStyle;rounded=0;orthogonalLoop=1;jettySize=auto;html=1;exitX=0;exitY=0.5;exitDx=0;exitDy=0;exitPerimeter=0;entryX=0.308;entryY=0.508;entryDx=0;entryDy=0;entryPerimeter=0;" parent="1" source="KB0jX_A3wL89m-BL7uf9-135" target="KB0jX_A3wL89m-BL7uf9-134" edge="1">
          <mxGeometry relative="1" as="geometry" />
        </mxCell>
        <mxCell id="KB0jX_A3wL89m-BL7uf9-137" style="edgeStyle=orthogonalEdgeStyle;rounded=0;orthogonalLoop=1;jettySize=auto;html=1;exitX=0;exitY=0.5;exitDx=0;exitDy=0;exitPerimeter=0;entryX=0.308;entryY=0.508;entryDx=0;entryDy=0;entryPerimeter=0;" parent="1" edge="1">
          <mxGeometry relative="1" as="geometry">
            <mxPoint x="759.5799999999999" y="382.5" as="sourcePoint" />
            <mxPoint x="759.5799999999999" y="382.5" as="targetPoint" />
          </mxGeometry>
        </mxCell>
        <mxCell id="KB0jX_A3wL89m-BL7uf9-138" value="" style="shape=waypoint;sketch=0;fillStyle=solid;size=6;pointerEvents=1;points=[];fillColor=none;resizable=0;rotatable=0;perimeter=centerPerimeter;snapToPoint=1;" parent="1" vertex="1">
          <mxGeometry x="739.5799999999999" y="382.5" width="20" height="20" as="geometry" />
        </mxCell>
        <mxCell id="KB0jX_A3wL89m-BL7uf9-139" value="" style="line;strokeWidth=2;direction=south;html=1;" parent="1" vertex="1">
          <mxGeometry x="744.5799999999999" y="392.5" width="10" height="40" as="geometry" />
        </mxCell>
        <mxCell id="KB0jX_A3wL89m-BL7uf9-140" style="edgeStyle=orthogonalEdgeStyle;rounded=0;orthogonalLoop=1;jettySize=auto;html=1;exitX=0;exitY=0.5;exitDx=0;exitDy=0;exitPerimeter=0;entryX=0.308;entryY=0.508;entryDx=0;entryDy=0;entryPerimeter=0;" parent="1" source="KB0jX_A3wL89m-BL7uf9-139" target="KB0jX_A3wL89m-BL7uf9-138" edge="1">
          <mxGeometry relative="1" as="geometry" />
        </mxCell>
        <mxCell id="KB0jX_A3wL89m-BL7uf9-141" value="" style="shape=waypoint;sketch=0;fillStyle=solid;size=6;pointerEvents=1;points=[];fillColor=none;resizable=0;rotatable=0;perimeter=centerPerimeter;snapToPoint=1;" parent="1" vertex="1">
          <mxGeometry x="805" y="382.5" width="20" height="20" as="geometry" />
        </mxCell>
        <mxCell id="KB0jX_A3wL89m-BL7uf9-142" value="" style="line;strokeWidth=2;direction=south;html=1;" parent="1" vertex="1">
          <mxGeometry x="810" y="392.5" width="10" height="40" as="geometry" />
        </mxCell>
        <mxCell id="KB0jX_A3wL89m-BL7uf9-143" style="edgeStyle=orthogonalEdgeStyle;rounded=0;orthogonalLoop=1;jettySize=auto;html=1;exitX=0;exitY=0.5;exitDx=0;exitDy=0;exitPerimeter=0;entryX=0.308;entryY=0.508;entryDx=0;entryDy=0;entryPerimeter=0;" parent="1" source="KB0jX_A3wL89m-BL7uf9-142" target="KB0jX_A3wL89m-BL7uf9-141" edge="1">
          <mxGeometry relative="1" as="geometry" />
        </mxCell>
        <mxCell id="KB0jX_A3wL89m-BL7uf9-144" value="&lt;u&gt;BarcodeID&lt;/u&gt;" style="text;strokeColor=none;fillColor=none;spacingLeft=4;spacingRight=4;overflow=hidden;rotatable=0;points=[[0,0.5],[1,0.5]];portConstraint=eastwest;fontSize=12;whiteSpace=wrap;html=1;" parent="1" vertex="1">
          <mxGeometry x="639.79" y="367.5" width="70.42" height="30" as="geometry" />
        </mxCell>
        <mxCell id="KB0jX_A3wL89m-BL7uf9-145" value="Name" style="text;strokeColor=none;fillColor=none;spacingLeft=4;spacingRight=4;overflow=hidden;rotatable=0;points=[[0,0.5],[1,0.5]];portConstraint=eastwest;fontSize=12;whiteSpace=wrap;html=1;" parent="1" vertex="1">
          <mxGeometry x="724.94" y="367.5" width="49.27" height="30" as="geometry" />
        </mxCell>
        <mxCell id="KB0jX_A3wL89m-BL7uf9-146" value="" style="line;strokeWidth=2;direction=south;html=1;" parent="1" vertex="1">
          <mxGeometry x="670" y="492.5" width="10" height="40" as="geometry" />
        </mxCell>
        <mxCell id="KB0jX_A3wL89m-BL7uf9-147" value="" style="shape=waypoint;sketch=0;fillStyle=solid;size=6;pointerEvents=1;points=[];fillColor=none;resizable=0;rotatable=0;perimeter=centerPerimeter;snapToPoint=1;" parent="1" vertex="1">
          <mxGeometry x="665" y="522.5" width="20" height="20" as="geometry" />
        </mxCell>
        <mxCell id="KB0jX_A3wL89m-BL7uf9-148" value="PhoneNumber" style="text;strokeColor=none;fillColor=none;spacingLeft=4;spacingRight=4;overflow=hidden;rotatable=0;points=[[0,0.5],[1,0.5]];portConstraint=eastwest;fontSize=12;whiteSpace=wrap;html=1;" parent="1" vertex="1">
          <mxGeometry x="630" y="532.5" width="90" height="30" as="geometry" />
        </mxCell>
        <mxCell id="KB0jX_A3wL89m-BL7uf9-153" value="RATING2552" style="shape=ext;double=1;rounded=0;whiteSpace=wrap;html=1;" parent="1" vertex="1">
          <mxGeometry x="434.01" y="431.25" width="135" height="61.25" as="geometry" />
        </mxCell>
        <mxCell id="KB0jX_A3wL89m-BL7uf9-156" value="" style="edgeStyle=entityRelationEdgeStyle;fontSize=12;html=1;endArrow=ERzeroToMany;startArrow=ERmandOne;rounded=0;" parent="1" source="KB0jX_A3wL89m-BL7uf9-110" edge="1">
          <mxGeometry width="100" height="100" relative="1" as="geometry">
            <mxPoint x="83.68" y="611.76" as="sourcePoint" />
            <mxPoint x="180.68" y="460" as="targetPoint" />
          </mxGeometry>
        </mxCell>
        <mxCell id="KB0jX_A3wL89m-BL7uf9-157" value="Deliver" style="text;strokeColor=none;fillColor=none;spacingLeft=4;spacingRight=4;overflow=hidden;rotatable=0;points=[[0,0.5],[1,0.5]];portConstraint=eastwest;fontSize=12;whiteSpace=wrap;html=1;" parent="1" vertex="1">
          <mxGeometry x="101.97999999999999" y="500" width="54.8" height="30" as="geometry" />
        </mxCell>
        <mxCell id="KB0jX_A3wL89m-BL7uf9-158" value="" style="edgeStyle=entityRelationEdgeStyle;fontSize=12;html=1;endArrow=ERzeroToMany;startArrow=ERmandOne;rounded=0;" parent="1" source="KB0jX_A3wL89m-BL7uf9-88" target="KB0jX_A3wL89m-BL7uf9-153" edge="1">
          <mxGeometry width="100" height="100" relative="1" as="geometry">
            <mxPoint x="340.95" y="610" as="sourcePoint" />
            <mxPoint x="440.95" y="510" as="targetPoint" />
          </mxGeometry>
        </mxCell>
        <mxCell id="KB0jX_A3wL89m-BL7uf9-159" value="" style="edgeStyle=entityRelationEdgeStyle;fontSize=12;html=1;endArrow=ERzeroToMany;startArrow=ERmandOne;rounded=0;" parent="1" source="KB0jX_A3wL89m-BL7uf9-129" target="KB0jX_A3wL89m-BL7uf9-153" edge="1">
          <mxGeometry width="100" height="100" relative="1" as="geometry">
            <mxPoint x="548.12" y="562.495" as="sourcePoint" />
            <mxPoint x="649.11" y="563.12" as="targetPoint" />
            <Array as="points">
              <mxPoint x="690.42" y="570.62" />
              <mxPoint x="570" y="530" />
            </Array>
          </mxGeometry>
        </mxCell>
        <mxCell id="KB0jX_A3wL89m-BL7uf9-160" style="edgeStyle=orthogonalEdgeStyle;rounded=0;orthogonalLoop=1;jettySize=auto;html=1;exitX=0;exitY=0.5;exitDx=0;exitDy=0;exitPerimeter=0;entryX=0.308;entryY=0.508;entryDx=0;entryDy=0;entryPerimeter=0;" parent="1" edge="1">
          <mxGeometry relative="1" as="geometry">
            <mxPoint x="504.79999999999995" y="382.5" as="sourcePoint" />
            <mxPoint x="504.79999999999995" y="382.5" as="targetPoint" />
          </mxGeometry>
        </mxCell>
        <mxCell id="KB0jX_A3wL89m-BL7uf9-161" value="" style="shape=waypoint;sketch=0;fillStyle=solid;size=6;pointerEvents=1;points=[];fillColor=none;resizable=0;rotatable=0;perimeter=centerPerimeter;snapToPoint=1;" parent="1" vertex="1">
          <mxGeometry x="484.79999999999995" y="382.5" width="20" height="20" as="geometry" />
        </mxCell>
        <mxCell id="KB0jX_A3wL89m-BL7uf9-162" value="" style="line;strokeWidth=2;direction=south;html=1;" parent="1" vertex="1">
          <mxGeometry x="489.79999999999995" y="392.5" width="10" height="40" as="geometry" />
        </mxCell>
        <mxCell id="KB0jX_A3wL89m-BL7uf9-163" style="edgeStyle=orthogonalEdgeStyle;rounded=0;orthogonalLoop=1;jettySize=auto;html=1;exitX=0;exitY=0.5;exitDx=0;exitDy=0;exitPerimeter=0;entryX=0.308;entryY=0.508;entryDx=0;entryDy=0;entryPerimeter=0;" parent="1" source="KB0jX_A3wL89m-BL7uf9-162" target="KB0jX_A3wL89m-BL7uf9-161" edge="1">
          <mxGeometry relative="1" as="geometry" />
        </mxCell>
        <mxCell id="KB0jX_A3wL89m-BL7uf9-164" value="Score" style="text;strokeColor=none;fillColor=none;spacingLeft=4;spacingRight=4;overflow=hidden;rotatable=0;points=[[0,0.5],[1,0.5]];portConstraint=eastwest;fontSize=12;whiteSpace=wrap;html=1;" parent="1" vertex="1">
          <mxGeometry x="470.16000000000014" y="367.5" width="49.27" height="30" as="geometry" />
        </mxCell>
        <mxCell id="jKeH6Seah1SF0_YEhmj1-1" value="&lt;u&gt;rate&lt;/u&gt;" style="text;strokeColor=none;fillColor=none;spacingLeft=4;spacingRight=4;overflow=hidden;rotatable=0;points=[[0,0.5],[1,0.5]];portConstraint=eastwest;fontSize=12;whiteSpace=wrap;html=1;" parent="1" vertex="1">
          <mxGeometry x="608.22" y="440" width="31.57" height="30" as="geometry" />
        </mxCell>
        <mxCell id="jKeH6Seah1SF0_YEhmj1-3" value="of" style="text;strokeColor=none;fillColor=none;spacingLeft=4;spacingRight=4;overflow=hidden;rotatable=0;points=[[0,0.5],[1,0.5]];portConstraint=eastwest;fontSize=12;whiteSpace=wrap;html=1;fontStyle=4" parent="1" vertex="1">
          <mxGeometry x="373.12" y="440" width="24" height="30" as="geometry" />
        </mxCell>
        <mxCell id="XlqVo-25VZxivR2itZxE-1" value="CENTRE" style="whiteSpace=wrap;html=1;align=center;" vertex="1" parent="1">
          <mxGeometry x="906.1500000000001" y="120" width="170" height="60" as="geometry" />
        </mxCell>
        <mxCell id="XlqVo-25VZxivR2itZxE-2" value="Description" style="text;strokeColor=none;fillColor=none;spacingLeft=4;spacingRight=4;overflow=hidden;rotatable=0;points=[[0,0.5],[1,0.5]];portConstraint=eastwest;fontSize=12;whiteSpace=wrap;html=1;" vertex="1" parent="1">
          <mxGeometry x="1030" y="55" width="72.3" height="30" as="geometry" />
        </mxCell>
        <mxCell id="XlqVo-25VZxivR2itZxE-3" value="" style="shape=waypoint;sketch=0;fillStyle=solid;size=6;pointerEvents=1;points=[];fillColor=none;resizable=0;rotatable=0;perimeter=centerPerimeter;snapToPoint=1;" vertex="1" parent="1">
          <mxGeometry x="906.1500000000001" y="70" width="20" height="20" as="geometry" />
        </mxCell>
        <mxCell id="XlqVo-25VZxivR2itZxE-4" value="" style="line;strokeWidth=2;direction=south;html=1;" vertex="1" parent="1">
          <mxGeometry x="911.1500000000001" y="80" width="10" height="40" as="geometry" />
        </mxCell>
        <mxCell id="XlqVo-25VZxivR2itZxE-5" style="edgeStyle=orthogonalEdgeStyle;rounded=0;orthogonalLoop=1;jettySize=auto;html=1;exitX=0;exitY=0.5;exitDx=0;exitDy=0;exitPerimeter=0;entryX=0.308;entryY=0.508;entryDx=0;entryDy=0;entryPerimeter=0;" edge="1" parent="1" source="XlqVo-25VZxivR2itZxE-4" target="XlqVo-25VZxivR2itZxE-3">
          <mxGeometry relative="1" as="geometry" />
        </mxCell>
        <mxCell id="XlqVo-25VZxivR2itZxE-6" style="edgeStyle=orthogonalEdgeStyle;rounded=0;orthogonalLoop=1;jettySize=auto;html=1;exitX=0;exitY=0.5;exitDx=0;exitDy=0;exitPerimeter=0;entryX=0.308;entryY=0.508;entryDx=0;entryDy=0;entryPerimeter=0;" edge="1" parent="1">
          <mxGeometry relative="1" as="geometry">
            <mxPoint x="1000.73" y="70" as="sourcePoint" />
            <mxPoint x="1000.73" y="70" as="targetPoint" />
          </mxGeometry>
        </mxCell>
        <mxCell id="XlqVo-25VZxivR2itZxE-7" value="" style="shape=waypoint;sketch=0;fillStyle=solid;size=6;pointerEvents=1;points=[];fillColor=none;resizable=0;rotatable=0;perimeter=centerPerimeter;snapToPoint=1;" vertex="1" parent="1">
          <mxGeometry x="980.73" y="70" width="20" height="20" as="geometry" />
        </mxCell>
        <mxCell id="XlqVo-25VZxivR2itZxE-8" value="" style="line;strokeWidth=2;direction=south;html=1;" vertex="1" parent="1">
          <mxGeometry x="985.73" y="80" width="10" height="40" as="geometry" />
        </mxCell>
        <mxCell id="XlqVo-25VZxivR2itZxE-9" style="edgeStyle=orthogonalEdgeStyle;rounded=0;orthogonalLoop=1;jettySize=auto;html=1;exitX=0;exitY=0.5;exitDx=0;exitDy=0;exitPerimeter=0;entryX=0.308;entryY=0.508;entryDx=0;entryDy=0;entryPerimeter=0;" edge="1" parent="1" source="XlqVo-25VZxivR2itZxE-8" target="XlqVo-25VZxivR2itZxE-7">
          <mxGeometry relative="1" as="geometry" />
        </mxCell>
        <mxCell id="XlqVo-25VZxivR2itZxE-10" value="" style="shape=waypoint;sketch=0;fillStyle=solid;size=6;pointerEvents=1;points=[];fillColor=none;resizable=0;rotatable=0;perimeter=centerPerimeter;snapToPoint=1;" vertex="1" parent="1">
          <mxGeometry x="1046.15" y="70" width="20" height="20" as="geometry" />
        </mxCell>
        <mxCell id="XlqVo-25VZxivR2itZxE-11" value="" style="line;strokeWidth=2;direction=south;html=1;" vertex="1" parent="1">
          <mxGeometry x="1051.15" y="80" width="10" height="40" as="geometry" />
        </mxCell>
        <mxCell id="XlqVo-25VZxivR2itZxE-12" style="edgeStyle=orthogonalEdgeStyle;rounded=0;orthogonalLoop=1;jettySize=auto;html=1;exitX=0;exitY=0.5;exitDx=0;exitDy=0;exitPerimeter=0;entryX=0.308;entryY=0.508;entryDx=0;entryDy=0;entryPerimeter=0;" edge="1" parent="1" source="XlqVo-25VZxivR2itZxE-11" target="XlqVo-25VZxivR2itZxE-10">
          <mxGeometry relative="1" as="geometry" />
        </mxCell>
        <mxCell id="XlqVo-25VZxivR2itZxE-13" value="&lt;u&gt;Name&lt;/u&gt;" style="text;strokeColor=none;fillColor=none;spacingLeft=4;spacingRight=4;overflow=hidden;rotatable=0;points=[[0,0.5],[1,0.5]];portConstraint=eastwest;fontSize=12;whiteSpace=wrap;html=1;" vertex="1" parent="1">
          <mxGeometry x="890" y="55" width="52.3" height="30" as="geometry" />
        </mxCell>
        <mxCell id="XlqVo-25VZxivR2itZxE-14" value="EstDate" style="text;strokeColor=none;fillColor=none;spacingLeft=4;spacingRight=4;overflow=hidden;rotatable=0;points=[[0,0.5],[1,0.5]];portConstraint=eastwest;fontSize=12;whiteSpace=wrap;html=1;" vertex="1" parent="1">
          <mxGeometry x="971.15" y="55" width="58.85" height="30" as="geometry" />
        </mxCell>
        <mxCell id="XlqVo-25VZxivR2itZxE-15" value="CLIENTS" style="whiteSpace=wrap;html=1;align=center;" vertex="1" parent="1">
          <mxGeometry x="1395.2000000000003" y="120" width="170" height="60" as="geometry" />
        </mxCell>
        <mxCell id="XlqVo-25VZxivR2itZxE-17" value="" style="shape=waypoint;sketch=0;fillStyle=solid;size=6;pointerEvents=1;points=[];fillColor=none;resizable=0;rotatable=0;perimeter=centerPerimeter;snapToPoint=1;" vertex="1" parent="1">
          <mxGeometry x="1390.2" y="70" width="20" height="20" as="geometry" />
        </mxCell>
        <mxCell id="XlqVo-25VZxivR2itZxE-18" value="" style="line;strokeWidth=2;direction=south;html=1;" vertex="1" parent="1">
          <mxGeometry x="1395.2" y="80" width="10" height="40" as="geometry" />
        </mxCell>
        <mxCell id="XlqVo-25VZxivR2itZxE-19" style="edgeStyle=orthogonalEdgeStyle;rounded=0;orthogonalLoop=1;jettySize=auto;html=1;exitX=0;exitY=0.5;exitDx=0;exitDy=0;exitPerimeter=0;entryX=0.308;entryY=0.508;entryDx=0;entryDy=0;entryPerimeter=0;" edge="1" parent="1" source="XlqVo-25VZxivR2itZxE-18" target="XlqVo-25VZxivR2itZxE-17">
          <mxGeometry relative="1" as="geometry" />
        </mxCell>
        <mxCell id="XlqVo-25VZxivR2itZxE-20" style="edgeStyle=orthogonalEdgeStyle;rounded=0;orthogonalLoop=1;jettySize=auto;html=1;exitX=0;exitY=0.5;exitDx=0;exitDy=0;exitPerimeter=0;entryX=0.308;entryY=0.508;entryDx=0;entryDy=0;entryPerimeter=0;" edge="1" parent="1">
          <mxGeometry relative="1" as="geometry">
            <mxPoint x="1484.78" y="70" as="sourcePoint" />
            <mxPoint x="1484.78" y="70" as="targetPoint" />
          </mxGeometry>
        </mxCell>
        <mxCell id="XlqVo-25VZxivR2itZxE-21" value="" style="shape=waypoint;sketch=0;fillStyle=solid;size=6;pointerEvents=1;points=[];fillColor=none;resizable=0;rotatable=0;perimeter=centerPerimeter;snapToPoint=1;" vertex="1" parent="1">
          <mxGeometry x="1464.78" y="70" width="20" height="20" as="geometry" />
        </mxCell>
        <mxCell id="XlqVo-25VZxivR2itZxE-22" value="" style="line;strokeWidth=2;direction=south;html=1;" vertex="1" parent="1">
          <mxGeometry x="1469.78" y="80" width="10" height="40" as="geometry" />
        </mxCell>
        <mxCell id="XlqVo-25VZxivR2itZxE-23" style="edgeStyle=orthogonalEdgeStyle;rounded=0;orthogonalLoop=1;jettySize=auto;html=1;exitX=0;exitY=0.5;exitDx=0;exitDy=0;exitPerimeter=0;entryX=0.308;entryY=0.508;entryDx=0;entryDy=0;entryPerimeter=0;" edge="1" parent="1" source="XlqVo-25VZxivR2itZxE-22" target="XlqVo-25VZxivR2itZxE-21">
          <mxGeometry relative="1" as="geometry" />
        </mxCell>
        <mxCell id="XlqVo-25VZxivR2itZxE-26" style="edgeStyle=orthogonalEdgeStyle;rounded=0;orthogonalLoop=1;jettySize=auto;html=1;exitX=0;exitY=0.5;exitDx=0;exitDy=0;exitPerimeter=0;entryX=0.308;entryY=0.508;entryDx=0;entryDy=0;entryPerimeter=0;" edge="1" parent="1">
          <mxGeometry relative="1" as="geometry">
            <mxPoint x="1540.1999999999998" y="80.00000000000006" as="sourcePoint" />
            <mxPoint x="1540.1999999999998" y="80.00000000000006" as="targetPoint" />
          </mxGeometry>
        </mxCell>
        <mxCell id="XlqVo-25VZxivR2itZxE-27" value="&lt;u&gt;ClientID&lt;/u&gt;" style="text;strokeColor=none;fillColor=none;spacingLeft=4;spacingRight=4;overflow=hidden;rotatable=0;points=[[0,0.5],[1,0.5]];portConstraint=eastwest;fontSize=12;whiteSpace=wrap;html=1;" vertex="1" parent="1">
          <mxGeometry x="1364.99" y="55" width="70.42" height="30" as="geometry" />
        </mxCell>
        <mxCell id="XlqVo-25VZxivR2itZxE-28" value="ClientName" style="text;strokeColor=none;fillColor=none;spacingLeft=4;spacingRight=4;overflow=hidden;rotatable=0;points=[[0,0.5],[1,0.5]];portConstraint=eastwest;fontSize=12;whiteSpace=wrap;html=1;" vertex="1" parent="1">
          <mxGeometry x="1450.14" y="55" width="79.86" height="30" as="geometry" />
        </mxCell>
        <mxCell id="XlqVo-25VZxivR2itZxE-32" value="JOINING" style="shape=ext;double=1;rounded=0;whiteSpace=wrap;html=1;" vertex="1" parent="1">
          <mxGeometry x="1159.21" y="118.75" width="135" height="61.25" as="geometry" />
        </mxCell>
        <mxCell id="XlqVo-25VZxivR2itZxE-33" value="" style="edgeStyle=entityRelationEdgeStyle;fontSize=12;html=1;endArrow=ERzeroToMany;startArrow=ERmandOne;rounded=0;" edge="1" parent="1" source="XlqVo-25VZxivR2itZxE-1" target="XlqVo-25VZxivR2itZxE-32">
          <mxGeometry width="100" height="100" relative="1" as="geometry">
            <mxPoint x="1066.15" y="297.5" as="sourcePoint" />
            <mxPoint x="1166.15" y="197.5" as="targetPoint" />
          </mxGeometry>
        </mxCell>
        <mxCell id="XlqVo-25VZxivR2itZxE-34" value="" style="edgeStyle=entityRelationEdgeStyle;fontSize=12;html=1;endArrow=ERzeroToMany;startArrow=ERmandOne;rounded=0;" edge="1" parent="1" source="XlqVo-25VZxivR2itZxE-15" target="XlqVo-25VZxivR2itZxE-32">
          <mxGeometry width="100" height="100" relative="1" as="geometry">
            <mxPoint x="1273.3200000000002" y="249.995" as="sourcePoint" />
            <mxPoint x="1374.31" y="250.62" as="targetPoint" />
            <Array as="points">
              <mxPoint x="1415.62" y="258.12" />
              <mxPoint x="1295.2" y="217.5" />
            </Array>
          </mxGeometry>
        </mxCell>
        <mxCell id="XlqVo-25VZxivR2itZxE-35" style="edgeStyle=orthogonalEdgeStyle;rounded=0;orthogonalLoop=1;jettySize=auto;html=1;exitX=0;exitY=0.5;exitDx=0;exitDy=0;exitPerimeter=0;entryX=0.308;entryY=0.508;entryDx=0;entryDy=0;entryPerimeter=0;" edge="1" parent="1">
          <mxGeometry relative="1" as="geometry">
            <mxPoint x="1193.85" y="68.75" as="sourcePoint" />
            <mxPoint x="1193.85" y="68.75" as="targetPoint" />
          </mxGeometry>
        </mxCell>
        <mxCell id="XlqVo-25VZxivR2itZxE-36" value="" style="shape=waypoint;sketch=0;fillStyle=solid;size=6;pointerEvents=1;points=[];fillColor=none;resizable=0;rotatable=0;perimeter=centerPerimeter;snapToPoint=1;" vertex="1" parent="1">
          <mxGeometry x="1173.85" y="68.75" width="20" height="20" as="geometry" />
        </mxCell>
        <mxCell id="XlqVo-25VZxivR2itZxE-37" value="" style="line;strokeWidth=2;direction=south;html=1;" vertex="1" parent="1">
          <mxGeometry x="1178.85" y="78.75" width="10" height="40" as="geometry" />
        </mxCell>
        <mxCell id="XlqVo-25VZxivR2itZxE-38" style="edgeStyle=orthogonalEdgeStyle;rounded=0;orthogonalLoop=1;jettySize=auto;html=1;exitX=0;exitY=0.5;exitDx=0;exitDy=0;exitPerimeter=0;entryX=0.308;entryY=0.508;entryDx=0;entryDy=0;entryPerimeter=0;" edge="1" parent="1" source="XlqVo-25VZxivR2itZxE-37" target="XlqVo-25VZxivR2itZxE-36">
          <mxGeometry relative="1" as="geometry" />
        </mxCell>
        <mxCell id="XlqVo-25VZxivR2itZxE-39" value="DateTime" style="text;strokeColor=none;fillColor=none;spacingLeft=4;spacingRight=4;overflow=hidden;rotatable=0;points=[[0,0.5],[1,0.5]];portConstraint=eastwest;fontSize=12;whiteSpace=wrap;html=1;fontStyle=4" vertex="1" parent="1">
          <mxGeometry x="1159.2099999999998" y="53.75" width="64.64" height="30" as="geometry" />
        </mxCell>
        <mxCell id="XlqVo-25VZxivR2itZxE-40" value="&lt;u&gt;has&lt;/u&gt;" style="text;strokeColor=none;fillColor=none;spacingLeft=4;spacingRight=4;overflow=hidden;rotatable=0;points=[[0,0.5],[1,0.5]];portConstraint=eastwest;fontSize=12;whiteSpace=wrap;html=1;" vertex="1" parent="1">
          <mxGeometry x="1333.42" y="127.5" width="31.57" height="30" as="geometry" />
        </mxCell>
        <mxCell id="XlqVo-25VZxivR2itZxE-41" value="has" style="text;strokeColor=none;fillColor=none;spacingLeft=4;spacingRight=4;overflow=hidden;rotatable=0;points=[[0,0.5],[1,0.5]];portConstraint=eastwest;fontSize=12;whiteSpace=wrap;html=1;fontStyle=4" vertex="1" parent="1">
          <mxGeometry x="1098.32" y="127.5" width="31.68" height="30" as="geometry" />
        </mxCell>
        <mxCell id="XlqVo-25VZxivR2itZxE-42" style="edgeStyle=orthogonalEdgeStyle;rounded=0;orthogonalLoop=1;jettySize=auto;html=1;exitX=0;exitY=0.5;exitDx=0;exitDy=0;exitPerimeter=0;entryX=0.308;entryY=0.508;entryDx=0;entryDy=0;entryPerimeter=0;" edge="1" parent="1">
          <mxGeometry relative="1" as="geometry">
            <mxPoint x="1284.64" y="70" as="sourcePoint" />
            <mxPoint x="1284.64" y="70" as="targetPoint" />
          </mxGeometry>
        </mxCell>
        <mxCell id="XlqVo-25VZxivR2itZxE-43" value="" style="shape=waypoint;sketch=0;fillStyle=solid;size=6;pointerEvents=1;points=[];fillColor=none;resizable=0;rotatable=0;perimeter=centerPerimeter;snapToPoint=1;" vertex="1" parent="1">
          <mxGeometry x="1264.64" y="70" width="20" height="20" as="geometry" />
        </mxCell>
        <mxCell id="XlqVo-25VZxivR2itZxE-44" value="" style="line;strokeWidth=2;direction=south;html=1;" vertex="1" parent="1">
          <mxGeometry x="1269.64" y="80" width="10" height="40" as="geometry" />
        </mxCell>
        <mxCell id="XlqVo-25VZxivR2itZxE-45" style="edgeStyle=orthogonalEdgeStyle;rounded=0;orthogonalLoop=1;jettySize=auto;html=1;exitX=0;exitY=0.5;exitDx=0;exitDy=0;exitPerimeter=0;entryX=0.308;entryY=0.508;entryDx=0;entryDy=0;entryPerimeter=0;" edge="1" parent="1" source="XlqVo-25VZxivR2itZxE-44" target="XlqVo-25VZxivR2itZxE-43">
          <mxGeometry relative="1" as="geometry" />
        </mxCell>
        <mxCell id="XlqVo-25VZxivR2itZxE-46" value="JoinOrLeave" style="text;strokeColor=none;fillColor=none;spacingLeft=4;spacingRight=4;overflow=hidden;rotatable=0;points=[[0,0.5],[1,0.5]];portConstraint=eastwest;fontSize=12;whiteSpace=wrap;html=1;" vertex="1" parent="1">
          <mxGeometry x="1235" y="55" width="80" height="30" as="geometry" />
        </mxCell>
        <mxCell id="XlqVo-25VZxivR2itZxE-48" value="CUSTOMER" style="whiteSpace=wrap;html=1;align=center;" vertex="1" parent="1">
          <mxGeometry x="906.1500000000001" y="315" width="170" height="60" as="geometry" />
        </mxCell>
        <mxCell id="XlqVo-25VZxivR2itZxE-49" value="" style="shape=waypoint;sketch=0;fillStyle=solid;size=6;pointerEvents=1;points=[];fillColor=none;resizable=0;rotatable=0;perimeter=centerPerimeter;snapToPoint=1;" vertex="1" parent="1">
          <mxGeometry x="906.1500000000001" y="265" width="20" height="20" as="geometry" />
        </mxCell>
        <mxCell id="XlqVo-25VZxivR2itZxE-50" value="" style="line;strokeWidth=2;direction=south;html=1;" vertex="1" parent="1">
          <mxGeometry x="911.1500000000001" y="275" width="10" height="40" as="geometry" />
        </mxCell>
        <mxCell id="XlqVo-25VZxivR2itZxE-51" style="edgeStyle=orthogonalEdgeStyle;rounded=0;orthogonalLoop=1;jettySize=auto;html=1;exitX=0;exitY=0.5;exitDx=0;exitDy=0;exitPerimeter=0;entryX=0.308;entryY=0.508;entryDx=0;entryDy=0;entryPerimeter=0;" edge="1" parent="1" source="XlqVo-25VZxivR2itZxE-50" target="XlqVo-25VZxivR2itZxE-49">
          <mxGeometry relative="1" as="geometry" />
        </mxCell>
        <mxCell id="XlqVo-25VZxivR2itZxE-52" style="edgeStyle=orthogonalEdgeStyle;rounded=0;orthogonalLoop=1;jettySize=auto;html=1;exitX=0;exitY=0.5;exitDx=0;exitDy=0;exitPerimeter=0;entryX=0.308;entryY=0.508;entryDx=0;entryDy=0;entryPerimeter=0;" edge="1" parent="1">
          <mxGeometry relative="1" as="geometry">
            <mxPoint x="1000.73" y="265" as="sourcePoint" />
            <mxPoint x="1000.73" y="265" as="targetPoint" />
          </mxGeometry>
        </mxCell>
        <mxCell id="XlqVo-25VZxivR2itZxE-53" value="" style="shape=waypoint;sketch=0;fillStyle=solid;size=6;pointerEvents=1;points=[];fillColor=none;resizable=0;rotatable=0;perimeter=centerPerimeter;snapToPoint=1;" vertex="1" parent="1">
          <mxGeometry x="980.73" y="265" width="20" height="20" as="geometry" />
        </mxCell>
        <mxCell id="XlqVo-25VZxivR2itZxE-54" value="" style="line;strokeWidth=2;direction=south;html=1;" vertex="1" parent="1">
          <mxGeometry x="985.73" y="275" width="10" height="40" as="geometry" />
        </mxCell>
        <mxCell id="XlqVo-25VZxivR2itZxE-55" style="edgeStyle=orthogonalEdgeStyle;rounded=0;orthogonalLoop=1;jettySize=auto;html=1;exitX=0;exitY=0.5;exitDx=0;exitDy=0;exitPerimeter=0;entryX=0.308;entryY=0.508;entryDx=0;entryDy=0;entryPerimeter=0;" edge="1" parent="1" source="XlqVo-25VZxivR2itZxE-54" target="XlqVo-25VZxivR2itZxE-53">
          <mxGeometry relative="1" as="geometry" />
        </mxCell>
        <mxCell id="XlqVo-25VZxivR2itZxE-59" value="&lt;u&gt;ID&lt;/u&gt;" style="text;strokeColor=none;fillColor=none;spacingLeft=4;spacingRight=4;overflow=hidden;rotatable=0;points=[[0,0.5],[1,0.5]];portConstraint=eastwest;fontSize=12;whiteSpace=wrap;html=1;" vertex="1" parent="1">
          <mxGeometry x="906.15" y="250" width="52.3" height="30" as="geometry" />
        </mxCell>
        <mxCell id="XlqVo-25VZxivR2itZxE-60" value="Name" style="text;strokeColor=none;fillColor=none;spacingLeft=4;spacingRight=4;overflow=hidden;rotatable=0;points=[[0,0.5],[1,0.5]];portConstraint=eastwest;fontSize=12;whiteSpace=wrap;html=1;" vertex="1" parent="1">
          <mxGeometry x="971.1500000000001" y="250" width="58.85" height="30" as="geometry" />
        </mxCell>
        <mxCell id="XlqVo-25VZxivR2itZxE-74" value="SPARE_PART" style="whiteSpace=wrap;html=1;align=center;" vertex="1" parent="1">
          <mxGeometry x="1500.93" y="395" width="170" height="60" as="geometry" />
        </mxCell>
        <mxCell id="XlqVo-25VZxivR2itZxE-75" value="" style="shape=waypoint;sketch=0;fillStyle=solid;size=6;pointerEvents=1;points=[];fillColor=none;resizable=0;rotatable=0;perimeter=centerPerimeter;snapToPoint=1;" vertex="1" parent="1">
          <mxGeometry x="1500.93" y="345" width="20" height="20" as="geometry" />
        </mxCell>
        <mxCell id="XlqVo-25VZxivR2itZxE-76" value="" style="line;strokeWidth=2;direction=south;html=1;" vertex="1" parent="1">
          <mxGeometry x="1505.93" y="355" width="10" height="40" as="geometry" />
        </mxCell>
        <mxCell id="XlqVo-25VZxivR2itZxE-77" style="edgeStyle=orthogonalEdgeStyle;rounded=0;orthogonalLoop=1;jettySize=auto;html=1;exitX=0;exitY=0.5;exitDx=0;exitDy=0;exitPerimeter=0;entryX=0.308;entryY=0.508;entryDx=0;entryDy=0;entryPerimeter=0;" edge="1" parent="1" source="XlqVo-25VZxivR2itZxE-76" target="XlqVo-25VZxivR2itZxE-75">
          <mxGeometry relative="1" as="geometry" />
        </mxCell>
        <mxCell id="XlqVo-25VZxivR2itZxE-78" style="edgeStyle=orthogonalEdgeStyle;rounded=0;orthogonalLoop=1;jettySize=auto;html=1;exitX=0;exitY=0.5;exitDx=0;exitDy=0;exitPerimeter=0;entryX=0.308;entryY=0.508;entryDx=0;entryDy=0;entryPerimeter=0;" edge="1" parent="1">
          <mxGeometry relative="1" as="geometry">
            <mxPoint x="1595.51" y="345" as="sourcePoint" />
            <mxPoint x="1595.51" y="345" as="targetPoint" />
          </mxGeometry>
        </mxCell>
        <mxCell id="XlqVo-25VZxivR2itZxE-79" value="" style="shape=waypoint;sketch=0;fillStyle=solid;size=6;pointerEvents=1;points=[];fillColor=none;resizable=0;rotatable=0;perimeter=centerPerimeter;snapToPoint=1;" vertex="1" parent="1">
          <mxGeometry x="1575.51" y="345" width="20" height="20" as="geometry" />
        </mxCell>
        <mxCell id="XlqVo-25VZxivR2itZxE-80" value="" style="line;strokeWidth=2;direction=south;html=1;" vertex="1" parent="1">
          <mxGeometry x="1580.51" y="355" width="10" height="40" as="geometry" />
        </mxCell>
        <mxCell id="XlqVo-25VZxivR2itZxE-81" style="edgeStyle=orthogonalEdgeStyle;rounded=0;orthogonalLoop=1;jettySize=auto;html=1;exitX=0;exitY=0.5;exitDx=0;exitDy=0;exitPerimeter=0;entryX=0.308;entryY=0.508;entryDx=0;entryDy=0;entryPerimeter=0;" edge="1" parent="1" source="XlqVo-25VZxivR2itZxE-80" target="XlqVo-25VZxivR2itZxE-79">
          <mxGeometry relative="1" as="geometry" />
        </mxCell>
        <mxCell id="XlqVo-25VZxivR2itZxE-85" value="&lt;u&gt;PartID&lt;/u&gt;" style="text;strokeColor=none;fillColor=none;spacingLeft=4;spacingRight=4;overflow=hidden;rotatable=0;points=[[0,0.5],[1,0.5]];portConstraint=eastwest;fontSize=12;whiteSpace=wrap;html=1;" vertex="1" parent="1">
          <mxGeometry x="1484.78" y="330" width="52.3" height="30" as="geometry" />
        </mxCell>
        <mxCell id="XlqVo-25VZxivR2itZxE-86" value="UnitPrice" style="text;strokeColor=none;fillColor=none;spacingLeft=4;spacingRight=4;overflow=hidden;rotatable=0;points=[[0,0.5],[1,0.5]];portConstraint=eastwest;fontSize=12;whiteSpace=wrap;html=1;" vertex="1" parent="1">
          <mxGeometry x="1556.0800000000002" y="330" width="58.85" height="30" as="geometry" />
        </mxCell>
        <mxCell id="XlqVo-25VZxivR2itZxE-87" value="MOTORCYCLE" style="whiteSpace=wrap;html=1;align=center;" vertex="1" parent="1">
          <mxGeometry x="906.1500000000001" y="640" width="170" height="60" as="geometry" />
        </mxCell>
        <mxCell id="XlqVo-25VZxivR2itZxE-100" value="VIN" style="text;strokeColor=none;fillColor=none;spacingLeft=4;spacingRight=4;overflow=hidden;rotatable=0;points=[[0,0.5],[1,0.5]];portConstraint=eastwest;fontSize=12;whiteSpace=wrap;html=1;fontStyle=4" vertex="1" parent="1">
          <mxGeometry x="904.12" y="740" width="36.55" height="30" as="geometry" />
        </mxCell>
        <mxCell id="XlqVo-25VZxivR2itZxE-101" value="Make" style="text;strokeColor=none;fillColor=none;spacingLeft=4;spacingRight=4;overflow=hidden;rotatable=0;points=[[0,0.5],[1,0.5]];portConstraint=eastwest;fontSize=12;whiteSpace=wrap;html=1;" vertex="1" parent="1">
          <mxGeometry x="934.58" y="740" width="40" height="30" as="geometry" />
        </mxCell>
        <mxCell id="XlqVo-25VZxivR2itZxE-102" value="" style="line;strokeWidth=2;direction=south;html=1;" vertex="1" parent="1">
          <mxGeometry x="917.4" y="700" width="10" height="40" as="geometry" />
        </mxCell>
        <mxCell id="XlqVo-25VZxivR2itZxE-103" value="" style="shape=waypoint;sketch=0;fillStyle=solid;size=6;pointerEvents=1;points=[];fillColor=none;resizable=0;rotatable=0;perimeter=centerPerimeter;snapToPoint=1;" vertex="1" parent="1">
          <mxGeometry x="912.4" y="730" width="20" height="20" as="geometry" />
        </mxCell>
        <mxCell id="XlqVo-25VZxivR2itZxE-104" value="" style="line;strokeWidth=2;direction=south;html=1;" vertex="1" parent="1">
          <mxGeometry x="990.7299999999999" y="700" width="10" height="40" as="geometry" />
        </mxCell>
        <mxCell id="XlqVo-25VZxivR2itZxE-105" value="" style="shape=waypoint;sketch=0;fillStyle=solid;size=6;pointerEvents=1;points=[];fillColor=none;resizable=0;rotatable=0;perimeter=centerPerimeter;snapToPoint=1;" vertex="1" parent="1">
          <mxGeometry x="985.7299999999999" y="730" width="20" height="20" as="geometry" />
        </mxCell>
        <mxCell id="XlqVo-25VZxivR2itZxE-106" value="" style="line;strokeWidth=2;direction=south;html=1;" vertex="1" parent="1">
          <mxGeometry x="949.5799999999999" y="700" width="10" height="40" as="geometry" />
        </mxCell>
        <mxCell id="XlqVo-25VZxivR2itZxE-107" value="" style="shape=waypoint;sketch=0;fillStyle=solid;size=6;pointerEvents=1;points=[];fillColor=none;resizable=0;rotatable=0;perimeter=centerPerimeter;snapToPoint=1;" vertex="1" parent="1">
          <mxGeometry x="944.5799999999999" y="730" width="20" height="20" as="geometry" />
        </mxCell>
        <mxCell id="XlqVo-25VZxivR2itZxE-108" value="Model" style="text;strokeColor=none;fillColor=none;spacingLeft=4;spacingRight=4;overflow=hidden;rotatable=0;points=[[0,0.5],[1,0.5]];portConstraint=eastwest;fontSize=12;whiteSpace=wrap;html=1;" vertex="1" parent="1">
          <mxGeometry x="974.5799999999998" y="740" width="70" height="30" as="geometry" />
        </mxCell>
        <mxCell id="XlqVo-25VZxivR2itZxE-109" value="TASK" style="whiteSpace=wrap;html=1;align=center;" vertex="1" parent="1">
          <mxGeometry x="1507.28" y="610" width="170" height="60" as="geometry" />
        </mxCell>
        <mxCell id="XlqVo-25VZxivR2itZxE-110" value="HourlyRate" style="text;strokeColor=none;fillColor=none;spacingLeft=4;spacingRight=4;overflow=hidden;rotatable=0;points=[[0,0.5],[1,0.5]];portConstraint=eastwest;fontSize=12;whiteSpace=wrap;html=1;fontStyle=4" vertex="1" parent="1">
          <mxGeometry x="1479.78" y="710" width="75" height="30" as="geometry" />
        </mxCell>
        <mxCell id="XlqVo-25VZxivR2itZxE-111" value="TaskName" style="text;strokeColor=none;fillColor=none;spacingLeft=4;spacingRight=4;overflow=hidden;rotatable=0;points=[[0,0.5],[1,0.5]];portConstraint=eastwest;fontSize=12;whiteSpace=wrap;html=1;" vertex="1" parent="1">
          <mxGeometry x="1556.6" y="710" width="73.44" height="30" as="geometry" />
        </mxCell>
        <mxCell id="XlqVo-25VZxivR2itZxE-112" value="" style="line;strokeWidth=2;direction=south;html=1;" vertex="1" parent="1">
          <mxGeometry x="1512.28" y="670" width="10" height="40" as="geometry" />
        </mxCell>
        <mxCell id="XlqVo-25VZxivR2itZxE-113" value="" style="shape=waypoint;sketch=0;fillStyle=solid;size=6;pointerEvents=1;points=[];fillColor=none;resizable=0;rotatable=0;perimeter=centerPerimeter;snapToPoint=1;" vertex="1" parent="1">
          <mxGeometry x="1507.28" y="700" width="20" height="20" as="geometry" />
        </mxCell>
        <mxCell id="XlqVo-25VZxivR2itZxE-116" value="" style="line;strokeWidth=2;direction=south;html=1;" vertex="1" parent="1">
          <mxGeometry x="1586.86" y="670" width="10" height="40" as="geometry" />
        </mxCell>
        <mxCell id="XlqVo-25VZxivR2itZxE-117" value="" style="shape=waypoint;sketch=0;fillStyle=solid;size=6;pointerEvents=1;points=[];fillColor=none;resizable=0;rotatable=0;perimeter=centerPerimeter;snapToPoint=1;" vertex="1" parent="1">
          <mxGeometry x="1581.86" y="700" width="20" height="20" as="geometry" />
        </mxCell>
        <mxCell id="XlqVo-25VZxivR2itZxE-119" value="SERVICE" style="shape=ext;double=1;rounded=0;whiteSpace=wrap;html=1;" vertex="1" parent="1">
          <mxGeometry x="1183.1300000000003" y="488.37" width="135" height="61.25" as="geometry" />
        </mxCell>
        <mxCell id="XlqVo-25VZxivR2itZxE-130" value="POSSESSION" style="shape=ext;double=1;rounded=0;whiteSpace=wrap;html=1;" vertex="1" parent="1">
          <mxGeometry x="913.26" y="489" width="135" height="61.25" as="geometry" />
        </mxCell>
        <mxCell id="XlqVo-25VZxivR2itZxE-141" value="TASK_PERFORMED" style="shape=ext;double=1;rounded=0;whiteSpace=wrap;html=1;" vertex="1" parent="1">
          <mxGeometry x="1183.1300000000003" y="698.75" width="135" height="61.25" as="geometry" />
        </mxCell>
        <mxCell id="XlqVo-25VZxivR2itZxE-152" value="REPLACEMENT" style="shape=ext;double=1;rounded=0;whiteSpace=wrap;html=1;" vertex="1" parent="1">
          <mxGeometry x="1183.13" y="313.75" width="135" height="61.25" as="geometry" />
        </mxCell>
        <mxCell id="XlqVo-25VZxivR2itZxE-153" style="edgeStyle=orthogonalEdgeStyle;rounded=0;orthogonalLoop=1;jettySize=auto;html=1;exitX=0;exitY=0.5;exitDx=0;exitDy=0;exitPerimeter=0;entryX=0.308;entryY=0.508;entryDx=0;entryDy=0;entryPerimeter=0;" edge="1" parent="1">
          <mxGeometry relative="1" as="geometry">
            <mxPoint x="1217.77" y="263.75" as="sourcePoint" />
            <mxPoint x="1217.77" y="263.75" as="targetPoint" />
          </mxGeometry>
        </mxCell>
        <mxCell id="XlqVo-25VZxivR2itZxE-154" value="" style="shape=waypoint;sketch=0;fillStyle=solid;size=6;pointerEvents=1;points=[];fillColor=none;resizable=0;rotatable=0;perimeter=centerPerimeter;snapToPoint=1;" vertex="1" parent="1">
          <mxGeometry x="1197.77" y="263.75" width="20" height="20" as="geometry" />
        </mxCell>
        <mxCell id="XlqVo-25VZxivR2itZxE-155" value="" style="line;strokeWidth=2;direction=south;html=1;" vertex="1" parent="1">
          <mxGeometry x="1202.77" y="273.75" width="10" height="40" as="geometry" />
        </mxCell>
        <mxCell id="XlqVo-25VZxivR2itZxE-156" style="edgeStyle=orthogonalEdgeStyle;rounded=0;orthogonalLoop=1;jettySize=auto;html=1;exitX=0;exitY=0.5;exitDx=0;exitDy=0;exitPerimeter=0;entryX=0.308;entryY=0.508;entryDx=0;entryDy=0;entryPerimeter=0;" edge="1" parent="1" source="XlqVo-25VZxivR2itZxE-155" target="XlqVo-25VZxivR2itZxE-154">
          <mxGeometry relative="1" as="geometry" />
        </mxCell>
        <mxCell id="XlqVo-25VZxivR2itZxE-157" value="Quantity" style="text;strokeColor=none;fillColor=none;spacingLeft=4;spacingRight=4;overflow=hidden;rotatable=0;points=[[0,0.5],[1,0.5]];portConstraint=eastwest;fontSize=12;whiteSpace=wrap;html=1;fontStyle=0" vertex="1" parent="1">
          <mxGeometry x="1183.1299999999999" y="248.75" width="64.64" height="30" as="geometry" />
        </mxCell>
        <mxCell id="XlqVo-25VZxivR2itZxE-159" value="" style="shape=waypoint;sketch=0;fillStyle=solid;size=6;pointerEvents=1;points=[];fillColor=none;resizable=0;rotatable=0;perimeter=centerPerimeter;snapToPoint=1;" vertex="1" parent="1">
          <mxGeometry x="1288.5600000000002" y="265" width="20" height="20" as="geometry" />
        </mxCell>
        <mxCell id="XlqVo-25VZxivR2itZxE-160" value="" style="line;strokeWidth=2;direction=south;html=1;" vertex="1" parent="1">
          <mxGeometry x="1293.5600000000002" y="275" width="10" height="40" as="geometry" />
        </mxCell>
        <mxCell id="XlqVo-25VZxivR2itZxE-161" style="edgeStyle=orthogonalEdgeStyle;rounded=0;orthogonalLoop=1;jettySize=auto;html=1;exitX=0;exitY=0.5;exitDx=0;exitDy=0;exitPerimeter=0;entryX=0.308;entryY=0.508;entryDx=0;entryDy=0;entryPerimeter=0;" edge="1" parent="1" source="XlqVo-25VZxivR2itZxE-160" target="XlqVo-25VZxivR2itZxE-159">
          <mxGeometry relative="1" as="geometry" />
        </mxCell>
        <mxCell id="XlqVo-25VZxivR2itZxE-172" value="" style="line;strokeWidth=2;direction=south;html=1;" vertex="1" parent="1">
          <mxGeometry x="1028.69" y="698.75" width="10" height="81.25" as="geometry" />
        </mxCell>
        <mxCell id="XlqVo-25VZxivR2itZxE-173" value="" style="shape=waypoint;sketch=0;fillStyle=solid;size=6;pointerEvents=1;points=[];fillColor=none;resizable=0;rotatable=0;perimeter=centerPerimeter;snapToPoint=1;" vertex="1" parent="1">
          <mxGeometry x="1023.6899999999999" y="770" width="20" height="20" as="geometry" />
        </mxCell>
        <mxCell id="XlqVo-25VZxivR2itZxE-174" value="ManufactYear" style="text;strokeColor=none;fillColor=none;spacingLeft=4;spacingRight=4;overflow=hidden;rotatable=0;points=[[0,0.5],[1,0.5]];portConstraint=eastwest;fontSize=12;whiteSpace=wrap;html=1;" vertex="1" parent="1">
          <mxGeometry x="988.2700000000001" y="780" width="90.84" height="30" as="geometry" />
        </mxCell>
        <mxCell id="XlqVo-25VZxivR2itZxE-175" value="" style="line;strokeWidth=2;direction=south;html=1;" vertex="1" parent="1">
          <mxGeometry x="1061.57" y="700" width="10" height="40" as="geometry" />
        </mxCell>
        <mxCell id="XlqVo-25VZxivR2itZxE-176" value="" style="shape=waypoint;sketch=0;fillStyle=solid;size=6;pointerEvents=1;points=[];fillColor=none;resizable=0;rotatable=0;perimeter=centerPerimeter;snapToPoint=1;" vertex="1" parent="1">
          <mxGeometry x="1056.57" y="730" width="20" height="20" as="geometry" />
        </mxCell>
        <mxCell id="XlqVo-25VZxivR2itZxE-177" value="CC" style="text;strokeColor=none;fillColor=none;spacingLeft=4;spacingRight=4;overflow=hidden;rotatable=0;points=[[0,0.5],[1,0.5]];portConstraint=eastwest;fontSize=12;whiteSpace=wrap;html=1;" vertex="1" parent="1">
          <mxGeometry x="1051.15" y="740" width="30.84" height="30" as="geometry" />
        </mxCell>
        <mxCell id="XlqVo-25VZxivR2itZxE-162" value="RplmCost" style="text;strokeColor=none;fillColor=none;spacingLeft=4;spacingRight=4;overflow=hidden;rotatable=0;points=[[0,0.5],[1,0.5]];portConstraint=eastwest;fontSize=12;whiteSpace=wrap;html=1;" vertex="1" parent="1">
          <mxGeometry x="1264.64" y="250" width="80" height="30" as="geometry" />
        </mxCell>
        <mxCell id="XlqVo-25VZxivR2itZxE-187" value="TimeTaken" style="text;strokeColor=none;fillColor=none;spacingLeft=4;spacingRight=4;overflow=hidden;rotatable=0;points=[[0,0.5],[1,0.5]];portConstraint=eastwest;fontSize=12;whiteSpace=wrap;html=1;" vertex="1" parent="1">
          <mxGeometry x="1247.09" y="800" width="73.44" height="30" as="geometry" />
        </mxCell>
        <mxCell id="XlqVo-25VZxivR2itZxE-188" value="" style="line;strokeWidth=2;direction=south;html=1;" vertex="1" parent="1">
          <mxGeometry x="1202.77" y="760" width="10" height="40" as="geometry" />
        </mxCell>
        <mxCell id="XlqVo-25VZxivR2itZxE-189" value="" style="shape=waypoint;sketch=0;fillStyle=solid;size=6;pointerEvents=1;points=[];fillColor=none;resizable=0;rotatable=0;perimeter=centerPerimeter;snapToPoint=1;" vertex="1" parent="1">
          <mxGeometry x="1197.77" y="790" width="20" height="20" as="geometry" />
        </mxCell>
        <mxCell id="XlqVo-25VZxivR2itZxE-190" value="" style="line;strokeWidth=2;direction=south;html=1;" vertex="1" parent="1">
          <mxGeometry x="1277.35" y="760" width="10" height="40" as="geometry" />
        </mxCell>
        <mxCell id="XlqVo-25VZxivR2itZxE-191" value="" style="shape=waypoint;sketch=0;fillStyle=solid;size=6;pointerEvents=1;points=[];fillColor=none;resizable=0;rotatable=0;perimeter=centerPerimeter;snapToPoint=1;" vertex="1" parent="1">
          <mxGeometry x="1272.35" y="790" width="20" height="20" as="geometry" />
        </mxCell>
        <mxCell id="XlqVo-25VZxivR2itZxE-192" value="PCost" style="text;strokeColor=none;fillColor=none;spacingLeft=4;spacingRight=4;overflow=hidden;rotatable=0;points=[[0,0.5],[1,0.5]];portConstraint=eastwest;fontSize=12;whiteSpace=wrap;html=1;" vertex="1" parent="1">
          <mxGeometry x="1170.27" y="800" width="75" height="30" as="geometry" />
        </mxCell>
        <mxCell id="XlqVo-25VZxivR2itZxE-196" value="" style="line;strokeWidth=2;html=1;" vertex="1" parent="1">
          <mxGeometry x="1318.13" y="489.62" width="65.01" height="10" as="geometry" />
        </mxCell>
        <mxCell id="XlqVo-25VZxivR2itZxE-198" value="" style="line;strokeWidth=2;html=1;" vertex="1" parent="1">
          <mxGeometry x="1315" y="539.62" width="65.01" height="10" as="geometry" />
        </mxCell>
        <mxCell id="XlqVo-25VZxivR2itZxE-199" value="" style="line;strokeWidth=2;html=1;" vertex="1" parent="1">
          <mxGeometry x="1318.13" y="514" width="111.87" height="10" as="geometry" />
        </mxCell>
        <mxCell id="XlqVo-25VZxivR2itZxE-205" value="" style="shape=waypoint;sketch=0;fillStyle=solid;size=6;pointerEvents=1;points=[];fillColor=none;resizable=0;rotatable=0;perimeter=centerPerimeter;snapToPoint=1;" vertex="1" parent="1">
          <mxGeometry x="1370.2" y="534.62" width="20" height="20" as="geometry" />
        </mxCell>
        <mxCell id="XlqVo-25VZxivR2itZxE-206" value="" style="shape=waypoint;sketch=0;fillStyle=solid;size=6;pointerEvents=1;points=[];fillColor=none;resizable=0;rotatable=0;perimeter=centerPerimeter;snapToPoint=1;" vertex="1" parent="1">
          <mxGeometry x="1420" y="509" width="20" height="20" as="geometry" />
        </mxCell>
        <mxCell id="XlqVo-25VZxivR2itZxE-207" value="" style="shape=waypoint;sketch=0;fillStyle=solid;size=6;pointerEvents=1;points=[];fillColor=none;resizable=0;rotatable=0;perimeter=centerPerimeter;snapToPoint=1;" vertex="1" parent="1">
          <mxGeometry x="1375.2" y="484.62" width="20" height="20" as="geometry" />
        </mxCell>
        <mxCell id="XlqVo-25VZxivR2itZxE-209" value="" style="edgeStyle=entityRelationEdgeStyle;fontSize=12;html=1;endArrow=ERzeroToMany;startArrow=ERmandOne;rounded=0;exitX=0;exitY=0.615;exitDx=0;exitDy=0;exitPerimeter=0;" edge="1" parent="1" source="XlqVo-25VZxivR2itZxE-48" target="XlqVo-25VZxivR2itZxE-130">
          <mxGeometry width="100" height="100" relative="1" as="geometry">
            <mxPoint x="860" y="370" as="sourcePoint" />
            <mxPoint x="890" y="510" as="targetPoint" />
          </mxGeometry>
        </mxCell>
        <mxCell id="XlqVo-25VZxivR2itZxE-210" value="has" style="text;strokeColor=none;fillColor=none;spacingLeft=4;spacingRight=4;overflow=hidden;rotatable=0;points=[[0,0.5],[1,0.5]];portConstraint=eastwest;fontSize=12;whiteSpace=wrap;html=1;fontStyle=4" vertex="1" parent="1">
          <mxGeometry x="896.98" y="410" width="35.42" height="30" as="geometry" />
        </mxCell>
        <mxCell id="XlqVo-25VZxivR2itZxE-211" value="" style="edgeStyle=entityRelationEdgeStyle;fontSize=12;html=1;endArrow=ERzeroToMany;startArrow=ERmandOne;rounded=0;exitX=0;exitY=0.5;exitDx=0;exitDy=0;" edge="1" parent="1" source="XlqVo-25VZxivR2itZxE-87" target="XlqVo-25VZxivR2itZxE-130">
          <mxGeometry width="100" height="100" relative="1" as="geometry">
            <mxPoint x="1089.5800000000002" y="628" as="sourcePoint" />
            <mxPoint x="1130" y="473" as="targetPoint" />
          </mxGeometry>
        </mxCell>
        <mxCell id="XlqVo-25VZxivR2itZxE-212" value="owned by" style="text;strokeColor=none;fillColor=none;spacingLeft=4;spacingRight=4;overflow=hidden;rotatable=0;points=[[0,0.5],[1,0.5]];portConstraint=eastwest;fontSize=12;whiteSpace=wrap;html=1;fontStyle=4" vertex="1" parent="1">
          <mxGeometry x="881.82" y="570" width="68.18" height="30" as="geometry" />
        </mxCell>
        <mxCell id="XlqVo-25VZxivR2itZxE-213" value="" style="edgeStyle=entityRelationEdgeStyle;fontSize=12;html=1;endArrow=ERzeroToMany;startArrow=ERmandOne;rounded=0;" edge="1" parent="1" source="XlqVo-25VZxivR2itZxE-130" target="XlqVo-25VZxivR2itZxE-119">
          <mxGeometry width="100" height="100" relative="1" as="geometry">
            <mxPoint x="1064.1599999999999" y="519.38" as="sourcePoint" />
            <mxPoint x="1164.1599999999999" y="419.38" as="targetPoint" />
          </mxGeometry>
        </mxCell>
        <mxCell id="XlqVo-25VZxivR2itZxE-214" value="served by" style="text;strokeColor=none;fillColor=none;spacingLeft=4;spacingRight=4;overflow=hidden;rotatable=0;points=[[0,0.5],[1,0.5]];portConstraint=eastwest;fontSize=12;whiteSpace=wrap;html=1;fontStyle=4" vertex="1" parent="1">
          <mxGeometry x="1091.0300000000002" y="494" width="68.18" height="30" as="geometry" />
        </mxCell>
        <mxCell id="XlqVo-25VZxivR2itZxE-215" value="Date" style="text;strokeColor=none;fillColor=none;spacingLeft=4;spacingRight=4;overflow=hidden;rotatable=0;points=[[0,0.5],[1,0.5]];portConstraint=eastwest;fontSize=12;whiteSpace=wrap;html=1;fontStyle=4" vertex="1" parent="1">
          <mxGeometry x="1395.1999999999998" y="479.62" width="48.4" height="30" as="geometry" />
        </mxCell>
        <mxCell id="XlqVo-25VZxivR2itZxE-216" value="Location" style="text;strokeColor=none;fillColor=none;spacingLeft=4;spacingRight=4;overflow=hidden;rotatable=0;points=[[0,0.5],[1,0.5]];portConstraint=eastwest;fontSize=12;whiteSpace=wrap;html=1;" vertex="1" parent="1">
          <mxGeometry x="1435.41" y="504.63" width="58.85" height="30" as="geometry" />
        </mxCell>
        <mxCell id="XlqVo-25VZxivR2itZxE-217" value="TotalCost" style="text;strokeColor=none;fillColor=none;spacingLeft=4;spacingRight=4;overflow=hidden;rotatable=0;points=[[0,0.5],[1,0.5]];portConstraint=eastwest;fontSize=12;whiteSpace=wrap;html=1;" vertex="1" parent="1">
          <mxGeometry x="1383.14" y="529.62" width="60" height="30" as="geometry" />
        </mxCell>
        <mxCell id="XlqVo-25VZxivR2itZxE-218" value="" style="edgeStyle=entityRelationEdgeStyle;fontSize=12;html=1;endArrow=ERzeroToMany;startArrow=ERmandOne;rounded=0;exitX=0.416;exitY=0.983;exitDx=0;exitDy=0;exitPerimeter=0;entryX=0.25;entryY=0;entryDx=0;entryDy=0;" edge="1" parent="1" source="XlqVo-25VZxivR2itZxE-119" target="XlqVo-25VZxivR2itZxE-141">
          <mxGeometry width="100" height="100" relative="1" as="geometry">
            <mxPoint x="1244.64" y="680" as="sourcePoint" />
            <mxPoint x="1239" y="660" as="targetPoint" />
          </mxGeometry>
        </mxCell>
        <mxCell id="XlqVo-25VZxivR2itZxE-219" value="" style="edgeStyle=entityRelationEdgeStyle;fontSize=12;html=1;endArrow=ERzeroToMany;startArrow=ERmandOne;rounded=0;exitX=0.5;exitY=0;exitDx=0;exitDy=0;entryX=0.348;entryY=1.013;entryDx=0;entryDy=0;entryPerimeter=0;" edge="1" parent="1" source="XlqVo-25VZxivR2itZxE-119" target="XlqVo-25VZxivR2itZxE-152">
          <mxGeometry width="100" height="100" relative="1" as="geometry">
            <mxPoint x="1330" y="700" as="sourcePoint" />
            <mxPoint x="1430" y="600" as="targetPoint" />
          </mxGeometry>
        </mxCell>
        <mxCell id="XlqVo-25VZxivR2itZxE-220" value="has" style="text;strokeColor=none;fillColor=none;spacingLeft=4;spacingRight=4;overflow=hidden;rotatable=0;points=[[0,0.5],[1,0.5]];portConstraint=eastwest;fontSize=12;whiteSpace=wrap;html=1;fontStyle=4" vertex="1" parent="1">
          <mxGeometry x="1223.85" y="402.5" width="33.65" height="30" as="geometry" />
        </mxCell>
        <mxCell id="XlqVo-25VZxivR2itZxE-221" value="has" style="text;strokeColor=none;fillColor=none;spacingLeft=4;spacingRight=4;overflow=hidden;rotatable=0;points=[[0,0.5],[1,0.5]];portConstraint=eastwest;fontSize=12;whiteSpace=wrap;html=1;fontStyle=4" vertex="1" parent="1">
          <mxGeometry x="1212.77" y="595" width="34.21" height="30" as="geometry" />
        </mxCell>
        <mxCell id="XlqVo-25VZxivR2itZxE-222" value="" style="edgeStyle=entityRelationEdgeStyle;fontSize=12;html=1;endArrow=ERzeroToMany;startArrow=ERmandOne;rounded=0;" edge="1" parent="1" source="XlqVo-25VZxivR2itZxE-109" target="XlqVo-25VZxivR2itZxE-141">
          <mxGeometry width="100" height="100" relative="1" as="geometry">
            <mxPoint x="1450" y="710" as="sourcePoint" />
            <mxPoint x="1460" y="610" as="targetPoint" />
          </mxGeometry>
        </mxCell>
        <mxCell id="XlqVo-25VZxivR2itZxE-223" value="" style="edgeStyle=entityRelationEdgeStyle;fontSize=12;html=1;endArrow=ERzeroToMany;startArrow=ERmandOne;rounded=0;" edge="1" parent="1" source="XlqVo-25VZxivR2itZxE-74" target="XlqVo-25VZxivR2itZxE-152">
          <mxGeometry width="100" height="100" relative="1" as="geometry">
            <mxPoint x="1363.14" y="420" as="sourcePoint" />
            <mxPoint x="1463.14" y="320" as="targetPoint" />
          </mxGeometry>
        </mxCell>
        <mxCell id="XlqVo-25VZxivR2itZxE-224" value="&lt;u&gt;replace&lt;/u&gt;" style="text;strokeColor=none;fillColor=none;spacingLeft=4;spacingRight=4;overflow=hidden;rotatable=0;points=[[0,0.5],[1,0.5]];portConstraint=eastwest;fontSize=12;whiteSpace=wrap;html=1;" vertex="1" parent="1">
          <mxGeometry x="1403.8500000000001" y="360" width="52.3" height="29.38" as="geometry" />
        </mxCell>
        <mxCell id="XlqVo-25VZxivR2itZxE-225" value="&lt;u&gt;perform&lt;/u&gt;" style="text;strokeColor=none;fillColor=none;spacingLeft=4;spacingRight=4;overflow=hidden;rotatable=0;points=[[0,0.5],[1,0.5]];portConstraint=eastwest;fontSize=12;whiteSpace=wrap;html=1;" vertex="1" parent="1">
          <mxGeometry x="1370.2" y="655" width="52.3" height="30" as="geometry" />
        </mxCell>
      </root>
    </mxGraphModel>
  </diagram>
</mxfile>
